<?xml version="1.0" encoding="UTF-8" standalone="no"?>
<svg width="250px" height="250px" viewBox="0 0 250 250" version="1.1" xmlns="http://www.w3.org/2000/svg" xmlns:xlink="http://www.w3.org/1999/xlink">
    <!-- Generator: sketchtool 3.8.2 (29753) - http://www.bohemiancoding.com/sketch -->
    <title>86A0D355-D425-44AD-B74A-7C79267B5A13</title>
    <desc>Created with sketchtool.</desc>
    <defs>
        <path d="M124.974116,0 C193.948864,0 249.947601,55.9987374 249.947601,124.973485 C249.947601,193.948674 193.948864,249.947601 124.974116,249.947601 C55.9989268,249.947601 0,193.948674 0,124.973485 C0,55.9987374 55.9989268,0 124.974116,0 L124.974116,0 Z" id="path-1"></path>
    </defs>
    <g id="Home" stroke="none" stroke-width="1" fill="none" fill-rule="evenodd">
        <g transform="translate(-595.000000, -2008.000000)" id="Layer-4">
            <g transform="translate(0.000000, 1904.000000)">
                <g id="icon2" transform="translate(595.000000, 104.000000)">
                    <mask id="mask-2" fill="white">
                        <use xlink:href="#path-1"></use>
                    </mask>
                    <g id="Clip-2"></g>
                    <polygon id="Fill-1" fill="#6CB54A" mask="url(#mask-2)" points="-26.6967172 289.786932 288.834848 289.786932 288.834848 -64.7736742 -26.6967172 -64.7736742"></polygon>
                    <path d="M188.957071,128.589646 L73.1395202,166.644571 L23.5589015,15.7518939 L139.376263,-22.3042929 L188.957071,128.589646 Z M29.1367424,18.5707071 L75.9583333,161.066288 L183.378788,125.770202 L136.557449,-16.7260101 L29.1367424,18.5707071 Z" id="Fill-3" fill="#D5CBB2" mask="url(#mask-2)"></path>
                    <polygon id="Fill-4" fill="#D5CBB2" mask="url(#mask-2)" points="153.714646 77.4968434 71.2026515 104.597222 70.217803 101.598485 152.729798 74.4981061"></polygon>
                    <polygon id="Fill-5" fill="#D5CBB2" mask="url(#mask-2)" points="157.519571 89.0801768 75.0075758 116.180556 74.022096 113.181818 156.534091 86.0814394"></polygon>
                    <polygon id="Fill-6" fill="#D5CBB2" mask="url(#mask-2)" points="161.323864 100.66351 78.8118687 127.763889 77.8270202 124.765152 160.339015 97.6647727"></polygon>
                    <polygon id="Fill-7" fill="#D5CBB2" mask="url(#mask-2)" points="165.128788 112.246843 82.6167929 139.347854 81.6319444 136.348485 164.143939 109.248106"></polygon>
                    <polygon id="Fill-8" fill="#D5CBB2" mask="url(#mask-2)" points="137.395833 27.8169192 54.8840278 54.917298 53.899053 51.9179293 136.410985 24.8175505"></polygon>
                    <polygon id="Fill-9" fill="#D5CBB2" mask="url(#mask-2)" points="133.59154 16.2335859 51.0792298 43.3339646 50.0942551 40.334596 132.606061 13.2342172"></polygon>
                    <polygon id="Fill-10" fill="#D5CBB2" mask="url(#mask-2)" points="143.400884 66.3282828 95.6313131 82.0170455 94.6464646 79.0183081 142.416035 63.3295455"></polygon>
                    <polygon id="Fill-11" fill="#D9DDB9" mask="url(#mask-2)" points="88.9002525 79.3402778 85.1041667 86.8497475 81.2361111 84.9198232 81.6982323 83.989899 84.6111111 85.4652778 87.9722222 78.8737374"></polygon>
                    <polygon id="Stroke-12" stroke="#D5CBB2" stroke-width="2.5" mask="url(#mask-2)" points="88.9002525 79.3402778 85.1041667 86.8497475 81.2361111 84.9198232 81.6982323 83.989899 84.6111111 85.4652778 87.9722222 78.8737374"></polygon>
                    <polygon id="Fill-13" fill="#D5CBB2" mask="url(#mask-2)" points="139.525884 54.5309343 91.7563131 70.219697 90.7714646 67.2209596 138.541035 51.532197"></polygon>
                    <polygon id="Stroke-15" stroke="#D5CBB2" stroke-width="2.5" mask="url(#mask-2)" points="84.477904 67.540404 80.6818182 75.0498737 76.8137626 73.1199495 77.2758838 72.1900253 80.1887626 73.665404 83.5498737 67.0738636"></polygon>
                    <polygon id="Fill-16" fill="#D5CBB2" mask="url(#mask-2)" points="135.596591 42.5688131 87.8270202 58.2575758 86.8421717 55.2588384 134.611742 39.5700758"></polygon>
                    <polygon id="Fill-17" fill="#D9DDB9" mask="url(#mask-2)" points="80.5486111 55.5782828 76.7525253 63.0877525 72.8844697 61.1578283 73.3465909 60.227904 76.2594697 61.7032828 79.6205808 55.1117424"></polygon>
                    <polygon id="Stroke-18" stroke="#D5CBB2" stroke-width="2.5" mask="url(#mask-2)" points="80.5486111 55.5782828 76.7525253 63.0877525 72.8844697 61.1578283 73.3465909 60.227904 76.2594697 61.7032828 79.6205808 55.1117424"></polygon>
                    <polygon id="Fill-19" fill="#6CB54A" mask="url(#mask-2)" points="189.873106 240.50928 76.6919192 208.982134 118.126263 60.2348485 231.307449 91.7613636"></polygon>
                    <path d="M234.02904,90.2253788 L191.40846,243.230808 L73.9703283,210.517803 L116.590278,57.5132576 L234.02904,90.2253788 Z M79.4135101,207.446528 L188.337121,237.787816 L228.585859,93.2967172 L119.661616,62.9564394 L79.4135101,207.446528 Z" id="Fill-20" fill="#D5CBB2" mask="url(#mask-2)"></path>
                    <polygon id="Fill-21" fill="#D5CBB2" mask="url(#mask-2)" points="128.518939 167.911616 142.101641 152.873737 151.151515 161.962753 163.655934 149.592803 181.412247 160.275884 151.151515 190.532702"></polygon>
                    <polygon id="Fill-22" fill="#D5CBB2" mask="url(#mask-2)" points="216.246212 119.188131 151.152146 184.282828 117.52904 151.017677 125.510732 142.929293 150.751263 168.212121 208.193182 111.171086"></polygon>
                    <polygon id="Fill-23" fill="#A3AB8E" mask="url(#mask-2)" points="217.862374 229.614015 205.988005 241.488384 183.510732 219.011742 195.385101 207.137374"></polygon>
                    <polygon id="Fill-24" fill="#FFFFFF" mask="url(#mask-2)" points="195.385101 207.137058 183.510732 219.011427 172.349747 207.851073 184.224747 195.976705"></polygon>
                    <polygon id="Fill-25" fill="#E5E8D0" mask="url(#mask-2)" points="189.448232 213.074369 183.510732 219.011869 172.350379 207.851515 178.287879 201.914015"></polygon>
                    <polygon id="Fill-26" fill="#78825A" mask="url(#mask-2)" points="211.924874 235.551326 205.987374 241.488826 183.510732 219.011553 189.447601 213.074684"></polygon>
                    <path d="M157.409722,144.523359 L157.515783,144.52399 L157.622475,144.524621 L157.730429,144.525884 L157.837753,144.527146 L157.944444,144.52904 L158.050505,144.530934 L158.15846,144.53346 L158.265783,144.535985 L158.371843,144.539141 L158.479167,144.542298 L158.58649,144.546086 L158.693813,144.549874 L158.799874,144.554293 L158.907197,144.559343 L159.01452,144.563763 L159.121212,144.569444 L159.229167,144.575126 L159.334596,144.580808 L159.441919,144.587121 L159.549242,144.593434 L159.655934,144.600379 L159.762626,144.607323 L159.869318,144.614899 L159.97601,144.623106 L160.083965,144.631313 L160.190657,144.63952 L160.296086,144.648359 L160.40404,144.657197 L160.510732,144.666667 L160.617424,144.676768 L160.723485,144.686869 L160.830177,144.69697 L160.9375,144.707702 L161.043561,144.718434 L161.150884,144.729798 L161.256944,144.741793 L161.363005,144.753788 L161.469697,144.765783 L161.57702,144.778409 L161.683712,144.791667 L161.789141,144.804924 L161.895202,144.818182 L162.002525,144.832071 L162.108586,144.846591 L162.214646,144.861111 L162.320707,144.875631 L162.426768,144.890783 L162.532828,144.906566 L162.638889,144.921717 L162.746212,144.938131 L162.851641,144.954545 L162.957702,144.971591 L163.063763,144.988636 L163.169823,145.005682 L163.275253,145.023359 L163.381313,145.041667 L163.488005,145.059975 L163.593434,145.078914 L163.698864,145.097854 L163.804924,145.116793 L163.910354,145.136364 L164.015783,145.156566 L164.121212,145.176768 L164.227273,145.197601 L164.332702,145.218434 L164.4375,145.239268 L164.542298,145.260732 L164.648359,145.282828 L164.754419,145.305556 L164.858586,145.327652 L164.964015,145.350379 L165.069444,145.373737 L165.173611,145.397096 L165.279672,145.421086 L165.38447,145.445076 L165.489268,145.469697 L165.593434,145.494318 L165.698232,145.518939 L165.803662,145.544823 L165.907828,145.570076 L166.011995,145.59596 L166.116793,145.622475 L166.221591,145.649621 L166.325758,145.676136 L166.430556,145.703914 L166.534091,145.731061 L166.638258,145.75947 L166.743056,145.787879 L166.847222,145.816288 L166.950758,145.845328 L167.054924,145.874369 L167.15846,145.90404 L167.261995,145.933712 L167.366162,145.964015 L167.469066,145.994318 L167.573864,146.025253 L167.676768,146.056187 L167.780303,146.087753 L167.883838,146.119318 L167.986742,146.151515 L168.089646,146.184343 L168.193182,146.21654 L168.296717,146.25 L168.399621,146.28346 L168.501263,146.316919 L168.604798,146.35101 L168.707702,146.385101 L168.809975,146.419823 L168.91351,146.455177 L169.015152,146.49053 L169.117424,146.525884 L169.220328,146.561869 L169.32197,146.598485 L169.424242,146.63447 L169.526515,146.671717 L169.628157,146.708965 L169.729798,146.746212 L169.831439,146.784091 L169.933712,146.822601 L170.035354,146.861111 L170.136364,146.899621 L170.238005,146.938763 L170.339015,146.978535 L170.440025,147.018308 L170.541667,147.058081 L170.643308,147.099116 L170.743687,147.13952 L170.844066,147.180556 L170.945076,147.222222 L171.045455,147.263889 L171.145833,147.305556 L171.247475,147.348485 L171.346591,147.390783 L171.44697,147.433712 L171.54798,147.477273 L171.647727,147.520833 L171.747475,147.564394 L171.847222,147.608586 L171.946338,147.653409 L172.046086,147.698232 L172.145833,147.743687 L172.245581,147.789141 L172.344697,147.835227 L172.443182,147.880682 L172.542929,147.927399 L172.642045,147.974747 L172.74053,148.021465 L172.839015,148.068813 L172.9375,148.116793 L173.035985,148.164773 L173.13447,148.213384 L173.232955,148.261995 L173.330808,148.311237 L173.428662,148.36048 L173.526515,148.410354 L173.625,148.460227 L173.722222,148.510732 L173.819444,148.561237 L173.917298,148.612374 L174.01452,148.66351 L174.111111,148.715278 L174.208333,148.767045 L174.304924,148.819444 L174.402778,148.872475 L174.498106,148.924874 L174.594697,148.977904 L174.691919,149.031566 L174.787879,149.085859 L174.883838,149.13952 L174.980429,149.194444 L175.075126,149.248737 L175.171086,149.304293 L175.267045,149.359848 L175.362374,149.415404 L175.457702,149.471591 L175.55303,149.527778 L175.647727,149.584596 L175.742424,149.641414 L175.837121,149.698864 L175.931818,149.756313 L176.026515,149.815025 L176.121212,149.873106 L176.215278,149.931818 L176.309343,149.99053 L176.402778,150.049874 L176.496843,150.109217 L176.590278,150.169192 L176.684343,150.229798 L176.777146,150.290404 L176.869949,150.35101 L176.963384,150.412247 L177.056187,150.474116 L177.148359,150.535354 L177.241162,150.597854 L177.333333,150.660354 L177.425505,150.722854 L177.518308,150.785985 L177.609848,150.849747 L177.70202,150.91351 L177.793561,150.977273 L177.88447,151.041667 L177.976641,151.106692 L178.067551,151.171717 L178.157828,151.236742 L178.248737,151.302399 L178.339646,151.368687 L178.429924,151.434343 L178.520202,151.501263 L178.611111,151.568813 L178.700758,151.635732 L178.789773,151.702652 L178.879419,151.770833 L178.969697,151.839015 L179.058712,151.907197 L179.147727,151.97601 L179.236742,152.045455 L179.325758,152.114899 L179.414773,152.184975 L179.503157,152.255051 L179.590909,152.325126 L179.678662,152.395202 L179.767045,152.467172 L179.854798,152.53851 L179.942551,152.609848 L180.030303,152.681818 L180.117424,152.754419 L180.203914,152.826389 L180.290404,152.899621 L180.377525,152.972854 L180.464015,153.046086 L180.550505,153.119949 L180.636995,153.195076 L180.722854,153.269571 L180.808081,153.343434 L180.893308,153.418561 L180.979167,153.494318 L181.064394,153.570076 L181.149621,153.646465 L181.234217,153.722854 L181.318813,153.799242 L181.403409,153.876263 L181.487374,153.953914 L181.571338,154.030934 L181.654672,154.108586 L181.739268,154.1875 L181.822601,154.265783 L181.905303,154.344697 L181.989268,154.424242 L182.07197,154.503788 L182.15404,154.582702 L182.236111,154.662879 L182.318813,154.744318 L182.400884,154.824495 L182.482955,154.905934 L182.564394,154.987374 L182.645833,155.068813 L182.726641,155.150253 L182.807449,155.232323 L182.888258,155.315025 L182.968434,155.397096 L183.047348,155.479798 L183.127525,155.5625 L183.207071,155.645833 L183.285354,155.729167 L183.364268,155.8125 L183.442551,155.896465 L183.520202,155.979798 L183.597854,156.063763 L183.675505,156.14899 L183.752525,156.232955 L183.828914,156.316919 L183.905303,156.402146 L183.981061,156.486742 L184.056818,156.57197 L184.132576,156.657197 L184.207702,156.743056 L184.282197,156.828914 L184.356692,156.914773 L184.431187,157.000631 L184.505051,157.087121 L184.578914,157.174242 L184.651515,157.260101 L184.724747,157.347222 L184.797348,157.434343 L184.869318,157.520833 L184.941288,157.609217 L185.013258,157.69697 L185.084596,157.784091 L185.155303,157.871843 L185.22601,157.960227 L185.296717,158.048611 L185.366793,158.136995 L185.436869,158.22601 L185.505682,158.314394 L185.575126,158.403409 L185.643939,158.493056 L185.712121,158.582071 L185.780303,158.671086 L185.848485,158.760732 L185.916035,158.85101 L185.983586,158.941288 L186.049874,159.030934 L186.116793,159.121212 L186.183081,159.212121 L186.248737,159.302399 L186.314394,159.393308 L186.380051,159.484848 L186.444444,159.575126 L186.50947,159.666035 L186.573864,159.758207 L186.638258,159.849747 L186.70202,159.941288 L186.765152,160.03346 L186.828283,160.125631 L186.890783,160.217803 L186.953283,160.309975 L187.015783,160.402778 L187.077652,160.495581 L187.138889,160.588384 L187.200126,160.681187 L187.261364,160.774621 L187.32197,160.868056 L187.381944,160.960859 L187.441288,161.054293 L187.501894,161.14899 L187.560606,161.242424 L187.619318,161.33649 L187.67803,161.430556 L187.736742,161.524621 L187.794823,161.619318 L187.852273,161.714015 L187.909722,161.808081 L187.96654,161.903409 L188.02399,161.998737 L188.079545,162.093434 L188.135732,162.188763 L188.191919,162.284722 L188.247475,162.380051 L188.302399,162.47601 L188.357323,162.57197 L188.411616,162.667298 L188.465909,162.763258 L188.520202,162.86048 L188.573232,162.956439 L188.626263,163.052399 L188.679293,163.149621 L188.731692,163.246212 L188.784091,163.343434 L188.83649,163.440025 L188.887626,163.536616 L188.938763,163.63447 L188.989899,163.732323 L189.040404,163.828914 L189.090909,163.926768 L189.140783,164.024621 L189.190657,164.122475 L189.239899,164.220328 L189.289141,164.318813 L189.337753,164.416667 L189.386364,164.515152 L189.434343,164.613636 L189.482323,164.712121 L189.529672,164.811237 L189.57702,164.909722 L189.623737,165.008838 L189.670455,165.107955 L189.71654,165.206439 L189.761995,165.305556 L189.808081,165.405934 L189.853535,165.505051 L189.897727,165.604167 L189.942551,165.703914 L189.986742,165.804293 L190.030934,165.90404 L190.074495,166.003788 L190.117424,166.104167 L190.160985,166.204545 L190.203283,166.304924 L190.245581,166.405303 L190.287879,166.505682 L190.329545,166.606061 L190.370581,166.707071 L190.412247,166.808081 L190.452652,166.90846 L190.493056,167.010101 L190.53346,167.111111 L190.572601,167.21149 L190.612374,167.313131 L190.651515,167.414773 L190.690657,167.516414 L190.729167,167.618056 L190.767045,167.719697 L190.804924,167.821338 L190.842172,167.92298 L190.880051,168.025253 L190.916667,168.127525 L190.953283,168.229167 L190.989268,168.331439 L191.025253,168.433712 L191.061237,168.536616 L191.096591,168.638889 L191.131313,168.741162 L191.166035,168.844066 L191.200126,168.94697 L191.234217,169.049242 L191.267677,169.152146 L191.301768,169.255051 L191.334596,169.358586 L191.367424,169.46149 L191.399621,169.564394 L191.431818,169.667929 L191.463384,169.771465 L191.494949,169.875 L191.526515,169.977904 L191.556818,170.081439 L191.587753,170.184975 L191.617424,170.289141 L191.647727,170.392677 L191.676768,170.496212 L191.706439,170.600379 L191.73548,170.704545 L191.763889,170.808712 L191.792298,170.912879 L191.820076,171.017045 L191.847854,171.121212 L191.875,171.225379 L191.902146,171.329545 L191.928662,171.434343 L191.955177,171.539141 L191.981061,171.643308 L192.006944,171.748106 L192.032197,171.852273 L192.057449,171.957702 L192.082071,172.0625 L192.106061,172.167298 L192.130682,172.272096 L192.15404,172.377525 L192.177399,172.482323 L192.200758,172.587121 L192.223485,172.692551 L192.246212,172.79798 L192.268308,172.902778 L192.290404,173.008207 L192.311869,173.113005 L192.332702,173.218434 L192.354167,173.325126 L192.374369,173.429924 L192.394571,173.535354 L192.414773,173.641414 L192.434343,173.746843 L192.453914,173.852273 L192.472854,173.958333 L192.491162,174.063763 L192.50947,174.169823 L192.527778,174.275884 L192.545455,174.381944 L192.563131,174.487374 L192.580177,174.593434 L192.596591,174.699495 L192.613005,174.805556 L192.629419,174.911616 L192.645202,175.017677 L192.660354,175.124369 L192.675505,175.230429 L192.690657,175.33649 L192.705177,175.442551 L192.719066,175.549242 L192.732955,175.655934 L192.746843,175.761995 L192.760101,175.868687 L192.772727,175.974747 L192.785354,176.081439 L192.79798,176.1875 L192.809975,176.294192 L192.821338,176.400884 L192.832702,176.507576 L192.843434,176.614268 L192.854167,176.72096 L192.864899,176.827652 L192.875,176.934343 L192.88447,177.041035 L192.893939,177.147727 L192.902778,177.254419 L192.911616,177.361111 L192.920455,177.467803 L192.928662,177.574495 L192.936237,177.681818 L192.943813,177.78851 L192.950758,177.895202 L192.957702,178.002525 L192.964646,178.109217 L192.970328,178.215909 L192.976641,178.323232 L192.982323,178.430556 L192.987374,178.537247 L192.992424,178.643939 L192.996843,178.750631 L193.001263,178.857955 L193.005051,178.965278 L193.008838,179.07197 L193.011995,179.179293 L193.015152,179.285985 L193.017677,179.393308 L193.020202,179.5 L193.022727,179.606692 L193.02399,179.714646 L193.025884,179.821338 L193.026515,179.92803 L193.027778,180.035354 L193.027778,180.142677 L193.028409,180.249369 L193.027778,180.356692 L193.027778,180.464015 L193.026515,180.570707 L193.025884,180.67803 L193.02399,180.784722 L193.022727,180.892045 L193.020202,180.998737 L193.017677,181.106061 L193.015152,181.212753 L193.011995,181.320076 L193.008838,181.427399 L193.005051,181.534091 L193.001263,181.641414 L192.996843,181.748106 L192.992424,181.855429 L192.987374,181.962121 L192.982323,182.068813 L192.976641,182.176136 L192.970328,182.282828 L192.964646,182.38952 L192.957702,182.496212 L192.950758,182.603535 L192.943813,182.710227 L192.936237,182.817551 L192.928662,182.924242 L192.920455,183.030934 L192.911616,183.137626 L192.902778,183.244318 L192.893939,183.35101 L192.88447,183.458333 L192.875,183.565025 L192.864899,183.671086 L192.854167,183.778409 L192.843434,183.885101 L192.832702,183.991162 L192.821338,184.097854 L192.809975,184.204545 L192.79798,184.311237 L192.785354,184.417298 L192.772727,184.52399 L192.760101,184.630051 L192.746843,184.737374 L192.732955,184.843434 L192.719066,184.950126 L192.705177,185.056187 L192.690657,185.162247 L192.675505,185.268308 L192.660354,185.374369 L192.645202,185.481061 L192.629419,185.587121 L192.613005,185.693182 L192.596591,185.799874 L192.580177,185.905303 L192.563131,186.011364 L192.545455,186.117424 L192.527778,186.222854 L192.50947,186.329545 L192.491162,186.434975 L192.472854,186.540404 L192.453914,186.646465 L192.434343,186.752525 L192.414773,186.857891 L192.394571,186.963763 L192.374369,187.068876 L192.354167,187.174242 L192.332702,187.280366 L192.311869,187.385732 L192.290404,187.490657 L192.268308,187.596212 L192.246212,187.701263 L192.223485,187.806439 L192.200758,187.911932 L192.177399,188.016793 L192.15404,188.12178 L192.130682,188.226705 L192.106061,188.331818 L192.082071,188.436616 L192.057449,188.541351 L192.032197,188.646465 L192.006944,188.751073 L191.981061,188.855619 L191.955177,188.960101 L191.928662,189.064457 L191.902146,189.169192 L191.875,189.273864 L191.847854,189.377652 L191.820076,189.481818 L191.792298,189.58649 L191.763889,189.690404 L191.73548,189.794318 L191.706439,189.898737 L191.676768,190.002462 L191.647727,190.106124 L191.617424,190.210354 L191.587753,190.313826 L191.556818,190.417298 L191.526515,190.520833 L191.494949,190.624369 L191.463384,190.727525 L191.431818,190.83125 L191.399621,190.934848 L191.367424,191.037437 L191.334596,191.140467 L191.301768,191.243876 L191.267677,191.347159 L191.234217,191.449937 L191.200126,191.552273 L191.166035,191.655303 L191.131313,191.757955 L191.096591,191.860038 L191.061237,191.962626 L191.025253,192.065278 L190.989268,192.167803 L190.953283,192.269886 L190.916667,192.371465 L190.879419,192.474053 L190.842172,192.576136 L190.804924,192.677841 L190.767045,192.779419 L190.729167,192.880934 L190.690657,192.982828 L190.651515,193.084091 L190.612374,193.185669 L190.572601,193.287374 L190.53346,193.387942 L190.493056,193.489078 L190.452652,193.590467 L190.412247,193.691098 L190.370581,193.792298 L190.329545,193.892992 L190.287879,193.993245 L190.245581,194.09375 L190.203283,194.194444 L190.160985,194.29476 L190.117424,194.394886 L190.074495,194.494886 L190.030934,194.595202 L189.986742,194.695013 L189.942551,194.794697 L189.897727,194.894949 L189.853535,194.993687 L189.808081,195.093056 L189.761995,195.193245 L189.715909,195.292677 L189.670455,195.391225 L189.623737,195.490088 L189.57702,195.589141 L189.529672,195.688068 L189.482323,195.786869 L189.434343,195.885543 L189.386364,195.983712 L189.338384,196.081818 L189.289141,196.180429 L189.239899,196.278598 L189.190657,196.376578 L189.140783,196.474432 L189.090909,196.572222 L189.040404,196.669823 L188.989899,196.767298 L188.938763,196.864646 L188.887626,196.961869 L188.83649,197.058902 L188.784091,197.155871 L188.731692,197.252967 L188.679293,197.349684 L188.626263,197.446528 L188.573232,197.542866 L188.520202,197.638763 L188.465909,197.735543 L188.411616,197.831755 L188.357323,197.927273 L188.302399,198.023295 L188.247475,198.119129 L188.191919,198.214457 L188.135732,198.310354 L188.079545,198.405745 L188.023359,198.500316 L187.96654,198.595391 L187.909722,198.690341 L187.852273,198.785164 L187.794823,198.879798 L187.736742,198.974306 L187.67803,199.068624 L187.619318,199.162753 L187.560606,199.256818 L187.501263,199.350694 L187.441919,199.444318 L187.381944,199.537879 L187.32197,199.631313 L187.261364,199.724558 L187.200126,199.817992 L187.138889,199.911174 L187.077652,200.003535 L187.015783,200.096149 L186.953283,200.189205 L186.890783,200.281439 L186.828283,200.373548 L186.765152,200.465467 L186.70202,200.557513 L186.638258,200.649432 L186.573864,200.741225 L186.50947,200.832702 L186.445076,200.923485 L186.380051,201.014394 L186.314394,201.106061 L186.248737,201.196907 L186.183081,201.286995 L186.116793,201.377841 L186.049874,201.468119 L185.983586,201.558081 L185.916035,201.648043 L185.848485,201.738194 L185.780303,201.828093 L185.712121,201.917172 L185.643939,202.00625 L185.575126,202.095581 L185.505682,202.184785 L185.436869,202.273295 L185.366793,202.361806 L185.296717,202.450442 L185.22601,202.539268 L185.155303,202.62721 L185.084596,202.714646 L185.013258,202.802652 L184.941288,202.890025 L184.869318,202.977525 L184.797348,203.064962 L184.724747,203.151768 L184.652146,203.238384 L184.578283,203.325505 L184.505051,203.411679 L184.431187,203.49779 L184.356692,203.584659 L184.282197,203.670013 L184.207702,203.755492 L184.132576,203.841604 L184.056818,203.92702 L183.981061,204.011995 L183.905303,204.096843 L183.828914,204.181944 L183.752525,204.266351 L183.675505,204.350758 L183.597854,204.435164 L183.520202,204.518939 L183.442551,204.602778 L183.364268,204.686553 L183.285354,204.770139 L183.206439,204.853472 L183.127525,204.936427 L183.04798,205.019129 L182.968434,205.101641 L182.888258,205.183965 L182.807449,205.266477 L182.726641,205.348485 L182.645833,205.430366 L182.564394,205.511806 L182.482955,205.593371 L182.400884,205.674432 L182.318813,205.755051 L182.236742,205.835543 L182.15404,205.91572 L182.071338,205.995833 L181.988636,206.075189 L181.905934,206.15404 L181.822601,206.233081 L181.739268,206.311553 L181.655303,206.389962 L181.571338,206.468245 L181.487374,206.545455 L181.403409,206.62279 L181.318813,206.7 L181.234217,206.776515 L181.149621,206.852462 L181.064394,206.92904 L180.979167,207.004798 L180.893939,207.080114 L180.808081,207.155556 L180.722854,207.229861 L180.636995,207.304293 L180.550505,207.378977 L180.464015,207.452778 L180.377525,207.526136 L180.291035,207.599306 L180.204545,207.672222 L180.116793,207.745265 L180.029672,207.817551 L179.942551,207.888952 L179.854798,207.960922 L179.767045,208.03226 L179.679293,208.103346 L179.59154,208.173801 L179.503157,208.244129 L179.414141,208.31471 L179.326389,208.383965 L179.236742,208.453788 L179.147727,208.522854 L179.059343,208.591288 L178.969697,208.660038 L178.879419,208.728598 L178.789773,208.796465 L178.700758,208.863447 L178.611111,208.930619 L178.520202,208.99798 L178.429924,209.064583 L178.339646,209.130619 L178.249369,209.196654 L178.15846,209.262247 L178.066919,209.327778 L177.97601,209.392866 L177.885101,209.457134 L177.794192,209.521402 L177.70202,209.585859 L177.609848,209.649558 L177.518308,209.713005 L177.425505,209.776389 L177.333333,209.839015 L177.241793,209.901136 L177.14899,209.963258 L177.056187,210.025379 L176.963384,210.086806 L176.869949,210.148106 L176.776515,210.20928 L176.683712,210.269634 L176.590909,210.329482 L176.496843,210.389394 L176.402778,210.449369 L176.309343,210.508523 L176.215278,210.567424 L176.121212,210.626136 L176.026515,210.684407 L175.931818,210.74274 L175.837121,210.800442 L175.743056,210.85726 L175.648359,210.914268 L175.55303,210.971402 L175.457702,211.027778 L175.362374,211.083775 L175.266414,211.139836 L175.171086,211.195265 L175.075758,211.250063 L174.980429,211.304861 L174.883838,211.359659 L174.787879,211.413699 L174.691919,211.467487 L174.594697,211.521402 L174.498106,211.574558 L174.402778,211.62702 L174.305556,211.679672 L174.208333,211.73226 L174.111111,211.784091 L174.01452,211.835669 L173.917298,211.886932 L173.820076,211.937942 L173.722222,211.988573 L173.624369,212.039205 L173.526515,212.089078 L173.429293,212.138384 L173.330808,212.188131 L173.232955,212.237184 L173.13447,212.285922 L173.035985,212.334596 L172.9375,212.382639 L172.839646,212.430051 L172.741162,212.477525 L172.641414,212.524874 L172.542929,212.571717 L172.443813,212.618182 L172.344697,212.664331 L172.245581,212.710164 L172.145833,212.755934 L172.046086,212.801199 L171.946338,212.846086 L171.847222,212.890593 L171.747475,212.934848 L171.647727,212.978725 L171.54798,213.022222 L171.447601,213.065593 L171.347222,213.108586 L171.246843,213.151452 L171.145833,213.193813 L171.045455,213.235795 L170.945076,213.277399 L170.844697,213.318813 L170.743056,213.360164 L170.642045,213.400821 L170.542298,213.440909 L170.441288,213.480997 L170.339015,213.521023 L170.238005,213.560417 L170.136364,213.599621 L170.035354,213.638384 L169.933712,213.676831 L169.831439,213.715278 L169.729798,213.753093 L169.628157,213.790593 L169.526515,213.827778 L169.424242,213.864646 L169.32197,213.901199 L169.220328,213.937437 L169.118056,213.973295 L169.015783,214.008965 L168.912247,214.044508 L168.809975,214.079419 L168.707702,214.114078 L168.604798,214.148359 L168.501894,214.182386 L168.398359,214.216351 L168.296086,214.249621 L168.193813,214.282386 L168.090909,214.315152 L167.986742,214.34779 L167.883838,214.379861 L167.780303,214.411616 L167.676768,214.443056 L167.573864,214.474179 L167.469066,214.50524 L167.366162,214.535669 L167.261995,214.565846 L167.15846,214.595644 L167.054924,214.625189 L166.950758,214.654356 L166.847222,214.68327 L166.743056,214.711806 L166.638889,214.740025 L166.534091,214.768245 L166.429924,214.79577 L166.325758,214.823043 L166.221591,214.85 L166.116793,214.876705 L166.011995,214.903157 L165.907828,214.929167 L165.803662,214.954672 L165.699495,214.980051 L165.593434,215.005303 L165.489268,215.029987 L165.38447,215.054419 L165.279672,215.078472 L165.174242,215.102273 L165.068813,215.125884 L164.964015,215.14899 L164.858586,215.17178 L164.753788,215.194255 L164.648359,215.216477 L164.542929,215.238321 L164.438131,215.259848 L164.332702,215.281061 L164.227273,215.301957 L164.121212,215.322727 L164.015783,215.342929 L163.910354,215.362879 L163.804924,215.382449 L163.698864,215.401768 L163.593434,215.42077 L163.488005,215.439394 L163.381313,215.457891 L163.275253,215.475884 L163.169823,215.493624 L163.063763,215.510985 L162.957702,215.52803 L162.851641,215.54476 L162.746212,215.561237 L162.638889,215.577462 L162.532828,215.593245 L162.426768,215.608712 L162.320707,215.623801 L162.214646,215.638636 L162.108586,215.653157 L162.002525,215.667361 L161.895833,215.68125 L161.789773,215.694823 L161.682449,215.708144 L161.576389,215.721023 L161.469697,215.733649 L161.363636,215.745896 L161.256944,215.757891 L161.150884,215.769508 L161.044192,215.780808 L160.936869,215.791919 L160.830177,215.802588 L160.723485,215.812942 L160.617424,215.82298 L160.510732,215.832702 L160.40404,215.842109 L160.297348,215.851199 L160.190025,215.860038 L160.082702,215.868497 L159.97601,215.876641 L159.869318,215.884407 L159.762626,215.891919 L159.655934,215.899053 L159.549242,215.905934 L159.442551,215.9125 L159.335859,215.918687 L159.227904,215.924684 L159.121212,215.93024 L159.01452,215.93548 L158.907197,215.940404 L158.800505,215.945076 L158.693813,215.949369 L158.58649,215.953346 L158.479167,215.957071 L158.371843,215.960354 L158.265152,215.963384 L158.15846,215.966098 L158.051136,215.968497 L157.944444,215.970581 L157.837753,215.972348 L157.729798,215.973801 L157.622475,215.974874 L157.515783,215.975694 L157.409091,215.976136 L157.301768,215.976326 L157.195076,215.976136 L157.087753,215.975694 L156.981061,215.974874 L156.873737,215.973801 L156.766414,215.972348 L156.659091,215.970581 L156.552399,215.968497 L156.445707,215.966098 L156.338384,215.963384 L156.231692,215.960354 L156.124369,215.957071 L156.017045,215.953346 L155.909722,215.949369 L155.80303,215.945076 L155.696338,215.940404 L155.589646,215.93548 L155.482323,215.93024 L155.375631,215.924684 L155.268308,215.918687 L155.160985,215.9125 L155.054293,215.905934 L154.947601,215.899053 L154.840909,215.891919 L154.734217,215.884407 L154.627525,215.876641 L154.520833,215.868497 L154.414141,215.860038 L154.306187,215.851199 L154.200126,215.842109 L154.093434,215.832702 L153.986742,215.82298 L153.880051,215.812942 L153.773359,215.802588 L153.666667,215.791919 L153.559343,215.780808 L153.453283,215.769508 L153.346591,215.757891 L153.239899,215.745896 L153.133838,215.733649 L153.027146,215.721023 L152.921086,215.708144 L152.813763,215.694823 L152.707702,215.68125 L152.60101,215.667361 L152.494949,215.653157 L152.388889,215.638636 L152.282828,215.623801 L152.176768,215.608712 L152.070707,215.593245 L151.964646,215.577462 L151.857955,215.561237 L151.751894,215.54476 L151.645833,215.52803 L151.539773,215.510985 L151.434343,215.493624 L151.328283,215.475884 L151.222222,215.457891 L151.116162,215.439394 L151.010101,215.42077 L150.904672,215.401768 L150.799242,215.382449 L150.693813,215.362879 L150.587753,215.342929 L150.482323,215.322727 L150.376263,215.301957 L150.270833,215.281061 L150.165404,215.259848 L150.060606,215.238321 L149.955177,215.216477 L149.849747,215.194255 L149.744949,215.17178 L149.640152,215.14899 L149.534722,215.125884 L149.429293,215.102273 L149.324495,215.078472 L149.219697,215.054419 L149.114899,215.029987 L149.010101,215.005303 L148.904672,214.980051 L148.799874,214.954672 L148.696338,214.929167 L148.59154,214.903157 L148.486742,214.876705 L148.381944,214.85 L148.277778,214.823043 L148.173611,214.79577 L148.069444,214.768245 L147.964646,214.740025 L147.86048,214.711806 L147.756944,214.68327 L147.652778,214.654356 L147.548611,214.625189 L147.445076,214.595644 L147.34154,214.565846 L147.238005,214.535669 L147.13447,214.50524 L147.030303,214.474179 L146.926768,214.443056 L146.823232,214.411616 L146.720328,214.379861 L146.616793,214.34779 L146.513258,214.315152 L146.409722,214.282386 L146.308081,214.249621 L146.205177,214.216351 L146.101641,214.182386 L145.998737,214.148359 L145.896465,214.114078 L145.793561,214.079419 L145.691288,214.044508 L145.588384,214.008965 L145.48548,213.973295 L145.383838,213.937437 L145.281566,213.901199 L145.179293,213.864646 L145.077652,213.827778 L144.975379,213.790593 L144.873737,213.753093 L144.772096,213.715278 L144.669823,213.676831 L144.568182,213.638384 L144.467172,213.599621 L144.36553,213.560417 L144.26452,213.521023 L144.162879,213.480997 L144.061237,213.440909 L143.96149,213.400821 L143.86048,213.360164 L143.758838,213.318813 L143.65846,213.277399 L143.558081,213.235795 L143.457702,213.193813 L143.357323,213.151452 L143.256313,213.108586 L143.155934,213.065593 L143.056187,213.022222 L142.956439,212.978725 L142.856061,212.934848 L142.756313,212.89053 L142.657197,212.846086 L142.557449,212.801263 L142.457702,212.755934 L142.357955,212.710164 L142.258838,212.664331 L142.159722,212.618182 L142.060606,212.571717 L141.962121,212.524874 L141.863005,212.477525 L141.763889,212.430051 L141.666667,212.382639 L141.568182,212.334596 L141.469066,212.285922 L141.371212,212.237184 L141.272727,212.188131 L141.174242,212.138384 L141.07702,212.089078 L140.979798,212.039205 L140.881313,211.988573 L140.784091,211.937942 L140.686237,211.886932 L140.589015,211.835669 L140.492424,211.784091 L140.395202,211.73226 L140.29798,211.679672 L140.201389,211.62702 L140.105429,211.574558 L140.008838,211.521402 L139.911616,211.467487 L139.815657,211.413699 L139.719697,211.359659 L139.623737,211.304861 L139.527778,211.250063 L139.432449,211.195265 L139.337121,211.139836 L139.241162,211.083775 L139.145833,211.027778 L139.051136,210.971402 L138.955177,210.914268 L138.86048,210.85726 L138.766414,210.800442 L138.671717,210.74274 L138.57702,210.68428 L138.482955,210.626136 L138.388889,210.567487 L138.294823,210.508523 L138.200758,210.449369 L138.106692,210.389394 L138.013258,210.329482 L137.920455,210.269634 L137.82702,210.20928 L137.733586,210.148106 L137.640152,210.086806 L137.547348,210.025379 L137.454545,209.963258 L137.361742,209.901136 L137.270202,209.839015 L137.17803,209.776389 L137.085859,209.713005 L136.993687,209.649558 L136.902146,209.585859 L136.809975,209.521402 L136.718434,209.457134 L136.628157,209.392866 L136.536616,209.327778 L136.445076,209.262247 L136.354798,209.196654 L136.263889,209.130619 L136.173611,209.064583 L136.083333,208.99798 L135.992424,208.930619 L135.902778,208.863447 L135.813763,208.796465 L135.724116,208.728598 L135.633838,208.660038 L135.544192,208.591288 L135.455808,208.522854 L135.366793,208.453788 L135.277778,208.383965 L135.189394,208.31471 L135.100379,208.244129 L135.012626,208.173801 L134.924242,208.103346 L134.83649,208.03226 L134.748737,207.960922 L134.660985,207.888952 L134.573864,207.817551 L134.486742,207.745265 L134.399621,207.672222 L134.3125,207.599306 L134.22601,207.526136 L134.13952,207.452778 L134.053662,207.378977 L133.96654,207.304293 L133.880682,207.229861 L133.795455,207.155556 L133.709596,207.080114 L133.624369,207.004798 L133.539141,206.92904 L133.453914,206.852462 L133.369318,206.776515 L133.285354,206.7 L133.200126,206.62279 L133.116162,206.545455 L133.032828,206.468245 L132.948232,206.389962 L132.864899,206.311553 L132.781566,206.233081 L132.697601,206.15404 L132.614899,206.075189 L132.532197,205.995833 L132.449495,205.91572 L132.366793,205.835543 L132.284722,205.755051 L132.202652,205.674432 L132.121212,205.593371 L132.039141,205.511806 L131.957702,205.430366 L131.876894,205.348737 L131.796086,205.266667 L131.715278,205.183965 L131.635732,205.101831 L131.556187,205.019381 L131.47601,204.936174 L131.397096,204.853283 L131.318182,204.770328 L131.239899,204.686742 L131.160985,204.602778 L131.083333,204.518939 L131.005682,204.435164 L130.928662,204.350947 L130.851641,204.26654 L130.774621,204.181944 L130.698232,204.097096 L130.622475,204.012247 L130.546717,203.926831 L130.47096,203.841604 L130.395833,203.755934 L130.321338,203.670265 L130.246843,203.584407 L130.172348,203.49779 L130.098485,203.411932 L130.025253,203.325505 L129.95202,203.238636 L129.879419,203.15202 L129.806187,203.064962 L129.734217,202.977525 L129.662247,202.890025 L129.590278,202.802652 L129.518939,202.714899 L129.448232,202.62721 L129.377525,202.539015 L129.306818,202.450442 L129.236742,202.362058 L129.167298,202.273548 L129.097854,202.184785 L129.028409,202.095833 L128.959596,202.006503 L128.891414,201.917172 L128.823232,201.828093 L128.755051,201.738194 L128.6875,201.648359 L128.620581,201.558333 L128.55303,201.467803 L128.486742,201.377841 L128.420455,201.287311 L128.354798,201.196907 L128.289141,201.106061 L128.223485,201.014646 L128.15846,200.923801 L128.094066,200.832702 L128.029672,200.741225 L127.965278,200.649432 L127.901515,200.557513 L127.838384,200.465467 L127.775253,200.373864 L127.712753,200.281755 L127.650253,200.188952 L127.587753,200.096149 L127.525884,200.003851 L127.464646,199.911174 L127.403409,199.818308 L127.342172,199.724874 L127.281566,199.631313 L127.221591,199.537879 L127.161616,199.444318 L127.102273,199.35101 L127.042929,199.256818 L126.983586,199.162753 L126.925505,199.068939 L126.866793,198.974306 L126.808712,198.879798 L126.751263,198.785164 L126.693813,198.690341 L126.636364,198.595391 L126.580177,198.500631 L126.52399,198.405745 L126.467803,198.310354 L126.411616,198.214773 L126.356061,198.119129 L126.301136,198.023611 L126.246212,197.927273 L126.191919,197.831439 L126.137626,197.735543 L126.083965,197.639078 L126.030303,197.543182 L125.977273,197.446528 L125.924242,197.349684 L125.871212,197.252967 L125.819444,197.156187 L125.767045,197.058902 L125.715909,196.961869 L125.664773,196.864962 L125.613636,196.767298 L125.5625,196.669823 L125.512626,196.572222 L125.462121,196.474432 L125.412879,196.376894 L125.363005,196.278598 L125.313763,196.180114 L125.265152,196.082134 L125.217172,195.984028 L125.169192,195.885543 L125.121212,195.786869 L125.073864,195.688258 L125.026515,195.589141 L124.979798,195.490088 L124.933081,195.391604 L124.886995,195.292487 L124.840909,195.193119 L124.795455,195.093371 L124.75,194.993876 L124.705808,194.894949 L124.660985,194.794886 L124.616793,194.695013 L124.572601,194.595076 L124.52904,194.495076 L124.48548,194.395076 L124.442551,194.294571 L124.400253,194.194634 L124.357323,194.093939 L124.315657,193.993245 L124.27399,193.892992 L124.232323,193.792298 L124.191288,193.691288 L124.150884,193.590467 L124.11048,193.489457 L124.070076,193.388131 L124.030303,193.286995 L123.991162,193.185669 L123.95202,193.08447 L123.912879,192.983207 L123.874369,192.881124 L123.83649,192.779419 L123.798611,192.677652 L123.760732,192.575947 L123.723485,192.474242 L123.686869,192.371843 L123.650253,192.269697 L123.613636,192.167614 L123.577652,192.065467 L123.542298,191.963005 L123.506944,191.860227 L123.472222,191.757765 L123.4375,191.655492 L123.402778,191.552462 L123.368687,191.449747 L123.335227,191.34697 L123.301768,191.243876 L123.268939,191.140846 L123.236111,191.037626 L123.203914,190.934659 L123.171717,190.831439 L123.13952,190.727715 L123.108586,190.624558 L123.07702,190.521086 L123.046086,190.417298 L123.015783,190.313636 L122.98548,190.210164 L122.955808,190.106376 L122.926136,190.002462 L122.897096,189.898737 L122.868056,189.794508 L122.839646,189.690404 L122.811237,189.58649 L122.78346,189.482008 L122.755682,189.377841 L122.728535,189.273674 L122.701389,189.169192 L122.674874,189.06471 L122.648359,188.960101 L122.622475,188.855619 L122.596591,188.751073 L122.571338,188.646465 L122.546086,188.541604 L122.521465,188.436616 L122.496843,188.331629 L122.472854,188.226957 L122.448864,188.122033 L122.425505,188.016793 L122.402778,187.911932 L122.379419,187.806629 L122.357323,187.701263 L122.334596,187.596212 L122.313131,187.491098 L122.291667,187.385543 L122.270202,187.279924 L122.249369,187.174621 L122.228535,187.069066 L122.208333,186.963573 L122.188763,186.858081 L122.169192,186.752525 L122.149621,186.646465 L122.130682,186.540404 L122.111742,186.434975 L122.093434,186.329545 L122.075758,186.223485 L122.058081,186.117424 L122.040404,186.011364 L122.023359,185.905303 L122.006313,185.799242 L121.989899,185.693182 L121.974116,185.587121 L121.958333,185.481061 L121.942551,185.375 L121.927399,185.268308 L121.912879,185.162247 L121.898359,185.056187 L121.883838,184.949495 L121.869949,184.843434 L121.856692,184.737374 L121.843434,184.630682 L121.830177,184.52399 L121.817551,184.417298 L121.805556,184.311237 L121.793561,184.204545 L121.781566,184.097854 L121.770202,183.991162 L121.75947,183.885101 L121.748737,183.778409 L121.738636,183.671717 L121.728535,183.565025 L121.718434,183.458333 L121.708965,183.351641 L121.700126,183.244318 L121.691288,183.137626 L121.683081,183.030934 L121.674874,182.924242 L121.666667,182.817551 L121.659722,182.710227 L121.652146,182.603535 L121.645202,182.496843 L121.638889,182.38952 L121.632576,182.282828 L121.626894,182.176136 L121.621212,182.068813 L121.616162,181.962121 L121.611111,181.855429 L121.606061,181.748106 L121.602273,181.641414 L121.597854,181.534091 L121.594066,181.426768 L121.590909,181.320076 L121.587753,181.213384 L121.585227,181.106061 L121.582702,180.998737 L121.580808,180.892045 L121.578914,180.784722 L121.577652,180.67803 L121.576389,180.570707 L121.575758,180.463384 L121.575126,180.356692 L121.575126,180.249369 L121.575126,180.142677 L121.575758,180.035354 L121.576389,179.92803 L121.577652,179.821338 L121.578914,179.714646 L121.580808,179.607323 L121.582702,179.5 L121.585227,179.393308 L121.587753,179.285985 L121.590909,179.179293 L121.594066,179.07197 L121.597854,178.964646 L121.602273,178.857955 L121.606061,178.751263 L121.611111,178.643939 L121.616162,178.537247 L121.621212,178.429924 L121.626894,178.323232 L121.632576,178.215909 L121.638889,178.109217 L121.645202,178.002525 L121.652146,177.895202 L121.659722,177.78851 L121.666667,177.681818 L121.674874,177.575126 L121.683081,177.467803 L121.691288,177.361111 L121.700126,177.254419 L121.708965,177.147727 L121.718434,177.041035 L121.728535,176.934343 L121.738636,176.827652 L121.748737,176.72096 L121.75947,176.614268 L121.770202,176.507576 L121.781566,176.400884 L121.793561,176.294823 L121.805556,176.1875 L121.817551,176.081439 L121.830177,175.974747 L121.843434,175.868056 L121.856692,175.761995 L121.869949,175.655934 L121.883838,175.549242 L121.898359,175.442551 L121.912879,175.33649 L121.927399,175.230429 L121.942551,175.124369 L121.958333,175.017677 L121.974116,174.911616 L121.989899,174.805556 L122.006313,174.699495 L122.023359,174.593434 L122.040404,174.487374 L122.058081,174.381313 L122.075758,174.275253 L122.093434,174.169823 L122.111742,174.063763 L122.130682,173.958333 L122.149621,173.852904 L122.169192,173.746843 L122.188763,173.640783 L122.208333,173.535354 L122.228535,173.429924 L122.249369,173.324495 L122.270202,173.219066 L122.291667,173.113636 L122.313131,173.008207 L122.334596,172.902778 L122.357323,172.79798 L122.379419,172.692551 L122.402778,172.587121 L122.425505,172.482323 L122.448864,172.376894 L122.472854,172.272096 L122.496843,172.167298 L122.521465,172.0625 L122.546086,171.957702 L122.571338,171.852273 L122.596591,171.748106 L122.622475,171.643308 L122.648359,171.539141 L122.674874,171.434343 L122.701389,171.329545 L122.728535,171.225379 L122.755682,171.121212 L122.78346,171.017045 L122.811237,170.912879 L122.839646,170.808712 L122.868056,170.704545 L122.897096,170.600379 L122.926136,170.496212 L122.955808,170.392677 L122.98548,170.289141 L123.015783,170.185606 L123.046086,170.081439 L123.07702,169.977904 L123.108586,169.874369 L123.13952,169.771465 L123.171717,169.667298 L123.203914,169.564394 L123.236111,169.46149 L123.268939,169.357955 L123.301768,169.255051 L123.335227,169.152146 L123.368687,169.049242 L123.402778,168.946338 L123.4375,168.843434 L123.472222,168.741162 L123.506944,168.638889 L123.542298,168.535985 L123.577652,168.433712 L123.613636,168.331439 L123.650253,168.229167 L123.686869,168.126894 L123.723485,168.025253 L123.760732,167.92298 L123.798611,167.821338 L123.83649,167.719697 L123.874369,167.617424 L123.912879,167.515783 L123.95202,167.414773 L123.991162,167.313131 L124.030303,167.212121 L124.070076,167.111111 L124.11048,167.00947 L124.150884,166.90846 L124.191288,166.808081 L124.232323,166.707071 L124.27399,166.606061 L124.315657,166.505682 L124.357323,166.405303 L124.400253,166.304924 L124.442551,166.204545 L124.48548,166.104167 L124.52904,166.003788 L124.572601,165.90404 L124.616793,165.804293 L124.660985,165.703914 L124.705808,165.604167 L124.75,165.505051 L124.795455,165.405934 L124.840909,165.306187 L124.886995,165.207071 L124.933081,165.107323 L124.979798,165.008838 L125.026515,164.909722 L125.073864,164.810606 L125.121212,164.712121 L125.168561,164.613636 L125.217172,164.515152 L125.265783,164.416667 L125.313763,164.318813 L125.363005,164.220328 L125.412879,164.121843 L125.462121,164.024621 L125.512626,163.926768 L125.5625,163.828914 L125.613005,163.732323 L125.664773,163.633838 L125.715909,163.536616 L125.767045,163.440025 L125.819444,163.342803 L125.871212,163.246212 L125.924242,163.149621 L125.977273,163.052399 L126.030303,162.955808 L126.083965,162.859848 L126.137626,162.763258 L126.191919,162.667298 L126.246212,162.57197 L126.301136,162.475379 L126.356061,162.380051 L126.411616,162.284091 L126.467803,162.188763 L126.523359,162.093434 L126.579545,161.998737 L126.636995,161.903409 L126.693813,161.808081 L126.751263,161.714015 L126.808712,161.619318 L126.866793,161.524621 L126.925505,161.429924 L126.983586,161.33649 L127.042298,161.242424 L127.102273,161.148359 L127.161616,161.054293 L127.221591,160.960859 L127.281566,160.868056 L127.342172,160.77399 L127.403409,160.680556 L127.464646,160.588384 L127.525884,160.494949 L127.587753,160.402778 L127.650253,160.309975 L127.712753,160.217172 L127.775253,160.125 L127.838384,160.03346 L127.901515,159.941288 L127.965278,159.849747 L128.029672,159.758207 L128.094066,159.666035 L128.159091,159.575126 L128.223485,159.484217 L128.289141,159.393308 L128.354798,159.302399 L128.420455,159.21149 L128.486742,159.121212 L128.55303,159.030934 L128.620581,158.940657 L128.6875,158.85101 L128.755051,158.760732 L128.823232,158.671086 L128.891414,158.582071 L128.959596,158.492424 L129.028409,158.403409 L129.097854,158.314394 L129.167298,158.225379 L129.236742,158.136995 L129.306818,158.048611 L129.376894,157.960227 L129.448232,157.871843 L129.519571,157.78346 L129.590278,157.69697 L129.662247,157.609217 L129.734217,157.520833 L129.806187,157.434343 L129.879419,157.347222 L129.95202,157.260101 L130.024621,157.174242 L130.098485,157.087121 L130.172348,157.000631 L130.246212,156.914773 L130.321338,156.828914 L130.396465,156.742424 L130.47096,156.657197 L130.546717,156.57197 L130.622475,156.486742 L130.698232,156.402146 L130.774621,156.316919 L130.851641,156.232323 L130.92803,156.148359 L131.005682,156.063763 L131.083965,155.979798 L131.160985,155.896465 L131.239899,155.8125 L131.318182,155.728535 L131.396465,155.646465 L131.47601,155.5625 L131.556187,155.479167 L131.635732,155.397096 L131.715278,155.315025 L131.796086,155.232323 L131.876894,155.150253 L131.957702,155.068813 L132.039141,154.987374 L132.121212,154.905934 L132.202652,154.824495 L132.284722,154.744318 L132.367424,154.662879 L132.450126,154.582702 L132.532197,154.503788 L132.614899,154.424242 L132.698232,154.344697 L132.781566,154.265783 L132.864899,154.1875 L132.948864,154.108586 L133.032828,154.030934 L133.116162,153.953914 L133.200126,153.876263 L133.285354,153.799242 L133.369318,153.722854 L133.454545,153.646465 L133.539141,153.570076 L133.624369,153.494318 L133.710227,153.418561 L133.795455,153.343434 L133.880682,153.269571 L133.96654,153.195076 L134.053662,153.119949 L134.13952,153.046086 L134.22601,152.972854 L134.313131,152.899621 L134.399621,152.826389 L134.486111,152.754419 L134.573864,152.681818 L134.661616,152.609848 L134.748737,152.53851 L134.83649,152.467172 L134.924874,152.395202 L135.012626,152.325126 L135.100379,152.255051 L135.188763,152.184975 L135.278409,152.114899 L135.366793,152.045455 L135.455808,151.97601 L135.544823,151.907197 L135.633838,151.839015 L135.724116,151.770833 L135.813763,151.702652 L135.902778,151.635732 L135.992424,151.568813 L136.083333,151.501263 L136.173611,151.434343 L136.263889,151.368687 L136.355429,151.302399 L136.445707,151.236742 L136.535985,151.171717 L136.627525,151.106692 L136.719066,151.041667 L136.810606,150.977273 L136.902146,150.91351 L136.993687,150.849747 L137.085859,150.785985 L137.17803,150.722854 L137.270202,150.660354 L137.362374,150.597854 L137.455177,150.535354 L137.547348,150.474116 L137.640152,150.412247 L137.733586,150.35101 L137.826389,150.290404 L137.919823,150.229798 L138.013258,150.169192 L138.107323,150.109217 L138.200758,150.049874 L138.294823,149.99053 L138.388889,149.931818 L138.482955,149.873106 L138.57702,149.815025 L138.671717,149.756313 L138.766414,149.698864 L138.861111,149.641414 L138.955808,149.584596 L139.051136,149.527778 L139.145833,149.471591 L139.241162,149.415404 L139.33649,149.359848 L139.432449,149.304293 L139.528409,149.248737 L139.623737,149.194444 L139.719697,149.13952 L139.815657,149.085859 L139.911616,149.031566 L140.008838,148.977904 L140.105429,148.924874 L140.201389,148.872475 L140.298611,148.819444 L140.395202,148.767045 L140.492424,148.715278 L140.589015,148.66351 L140.686237,148.612374 L140.784722,148.561237 L140.881313,148.510732 L140.978535,148.460227 L141.07702,148.410354 L141.174874,148.36048 L141.272727,148.311237 L141.371212,148.261995 L141.469066,148.213384 L141.568182,148.164773 L141.666667,148.116793 L141.765152,148.068813 L141.863636,148.021465 L141.96149,147.974747 L142.060606,147.927399 L142.160354,147.880682 L142.258838,147.835227 L142.357955,147.789141 L142.457702,147.743687 L142.557449,147.698232 L142.657197,147.653409 L142.756313,147.608586 L142.856061,147.564394 L142.956439,147.520833 L143.056187,147.477273 L143.156566,147.433712 L143.256944,147.390783 L143.356061,147.348485 L143.457702,147.305556 L143.558081,147.263889 L143.65846,147.222222 L143.760101,147.180556 L143.859848,147.13952 L143.960859,147.099116 L144.0625,147.058081 L144.16351,147.018308 L144.26452,146.978535 L144.36553,146.938763 L144.467172,146.899621 L144.568182,146.861111 L144.669823,146.822601 L144.772096,146.784091 L144.873737,146.746212 L144.975379,146.708965 L145.077652,146.671717 L145.179293,146.63447 L145.281566,146.598485 L145.383838,146.561869 L145.486742,146.525884 L145.589015,146.49053 L145.690657,146.455177 L145.793561,146.419823 L145.896465,146.385101 L145.998737,146.35101 L146.102273,146.316919 L146.204545,146.28346 L146.306818,146.25 L146.410985,146.21654 L146.513889,146.184343 L146.616793,146.151515 L146.720328,146.119318 L146.823232,146.087753 L146.926768,146.056187 L147.030303,146.025253 L147.13447,145.994318 L147.238005,145.964015 L147.34154,145.933712 L147.445076,145.90404 L147.548611,145.874369 L147.652778,145.845328 L147.756944,145.816288 L147.86048,145.787879 L147.965278,145.75947 L148.069444,145.731061 L148.17298,145.703914 L148.277778,145.676136 L148.381944,145.649621 L148.486742,145.622475 L148.59154,145.59596 L148.696338,145.570076 L148.799874,145.544823 L148.905303,145.518939 L149.010101,145.494318 L149.114899,145.469697 L149.219697,145.445076 L149.324495,145.421086 L149.429924,145.397096 L149.534091,145.373737 L149.640152,145.350379 L149.744949,145.327652 L149.849116,145.305556 L149.955177,145.282828 L150.061237,145.260732 L150.166667,145.239268 L150.270833,145.218434 L150.376263,145.197601 L150.482323,145.176768 L150.587753,145.156566 L150.693813,145.136364 L150.799242,145.116793 L150.904672,145.097854 L151.010101,145.078914 L151.116162,145.059975 L151.222222,145.041667 L151.328283,145.023359 L151.434343,145.005682 L151.539773,144.988636 L151.645833,144.971591 L151.751894,144.954545 L151.857955,144.938131 L151.964646,144.921717 L152.070707,144.906566 L152.176768,144.890783 L152.282828,144.875631 L152.388889,144.861111 L152.494949,144.846591 L152.60101,144.832071 L152.708333,144.818182 L152.814394,144.804924 L152.920455,144.791667 L153.026515,144.778409 L153.133838,144.765783 L153.241162,144.753788 L153.346591,144.741793 L153.453283,144.729798 L153.560606,144.718434 L153.666035,144.707702 L153.773359,144.69697 L153.880051,144.686869 L153.986742,144.676768 L154.093434,144.666667 L154.200126,144.657197 L154.307449,144.648359 L154.412879,144.63952 L154.519571,144.631313 L154.627525,144.623106 L154.734217,144.614899 L154.840909,144.607323 L154.947601,144.600379 L155.054293,144.593434 L155.162247,144.587121 L155.268939,144.580808 L155.375,144.575126 L155.482323,144.569444 L155.589646,144.563763 L155.696338,144.559343 L155.804293,144.554293 L155.909722,144.549874 L156.017045,144.546086 L156.124369,144.542298 L156.231692,144.539141 L156.337753,144.535985 L156.445707,144.53346 L156.55303,144.530934 L156.659091,144.52904 L156.766414,144.527146 L156.873106,144.525884 L156.981061,144.524621 L157.087753,144.52399 L157.193813,144.523359 L157.301768,144.523359 L157.409722,144.523359 Z M157.221591,153.361742 L157.140152,153.362374 L157.059343,153.362374 L156.979167,153.363636 L156.898359,153.364899 L156.817551,153.366162 L156.736111,153.367424 L156.655934,153.369318 L156.576389,153.371212 L156.494318,153.373737 L156.41351,153.376263 L156.333965,153.378788 L156.253157,153.381944 L156.171086,153.385101 L156.09154,153.388889 L156.010732,153.392677 L155.929924,153.396465 L155.849747,153.400253 L155.768308,153.405303 L155.6875,153.409722 L155.607955,153.414773 L155.527146,153.419823 L155.446338,153.425505 L155.36553,153.430556 L155.285354,153.436869 L155.205177,153.442551 L155.125,153.449495 L155.043561,153.455808 L154.963384,153.462753 L154.883207,153.469697 L154.802399,153.477273 L154.721591,153.484848 L154.641414,153.492424 L154.561869,153.500631 L154.480429,153.508838 L154.400884,153.517677 L154.320707,153.526515 L154.239268,153.535354 L154.159722,153.544192 L154.080177,153.553662 L154,153.563763 L153.918561,153.573864 L153.838384,153.583965 L153.758838,153.594697 L153.678662,153.605429 L153.598485,153.616162 L153.518308,153.627525 L153.438131,153.638889 L153.357955,153.650253 L153.277778,153.662247 L153.198864,153.674242 L153.118687,153.686869 L153.03851,153.699495 L152.958965,153.712121 L152.878788,153.725379 L152.799242,153.738636 L152.719066,153.752525 L152.640152,153.765783 L152.560606,153.780303 L152.480429,153.794192 L152.400884,153.808712 L152.321338,153.823864 L152.241793,153.839015 L152.162247,153.854167 L152.083333,153.869318 L152.003788,153.885101 L151.923611,153.901515 L151.844066,153.917929 L151.765152,153.934343 L151.686869,153.950758 L151.606692,153.967803 L151.527778,153.984848 L151.448864,154.001894 L151.369318,154.020202 L151.291035,154.037879 L151.21149,154.056187 L151.132576,154.074495 L151.053662,154.092803 L150.974747,154.111742 L150.896465,154.130682 L150.816919,154.150253 L150.738005,154.169823 L150.660354,154.190025 L150.581439,154.209596 L150.503157,154.230429 L150.424874,154.250631 L150.345328,154.271465 L150.267045,154.292298 L150.189394,154.313763 L150.111111,154.335227 L150.032828,154.356692 L149.954545,154.378788 L149.876263,154.401515 L149.79798,154.423611 L149.720328,154.446338 L149.642045,154.469697 L149.565025,154.492424 L149.486742,154.515783 L149.409091,154.539773 L149.331439,154.563763 L149.253157,154.587753 L149.175505,154.612374 L149.097854,154.636995 L149.021465,154.661616 L148.943813,154.686869 L148.86553,154.712121 L148.789141,154.737374 L148.71149,154.763258 L148.63447,154.789141 L148.558081,154.815657 L148.479798,154.842172 L148.402778,154.869318 L148.32702,154.895833 L148.25,154.92298 L148.17298,154.950758 L148.09596,154.978535 L148.019571,155.006313 L147.942551,155.034722 L147.866162,155.063131 L147.790404,155.09154 L147.714015,155.120581 L147.637626,155.150253 L147.561237,155.179293 L147.48548,155.208965 L147.409091,155.239268 L147.332702,155.268939 L147.257576,155.299242 L147.181818,155.330177 L147.105429,155.361111 L147.030303,155.392045 L146.954545,155.423611 L146.878788,155.455177 L146.804293,155.486742 L146.727904,155.518939 L146.652778,155.551136 L146.578283,155.583333 L146.502525,155.616162 L146.427399,155.649621 L146.352904,155.682449 L146.277778,155.715909 L146.202652,155.75 L146.128157,155.784091 L146.053662,155.817551 L145.979167,155.852273 L145.90404,155.887626 L145.830177,155.921717 L145.756944,155.957071 L145.681818,155.992424 L145.607323,156.028409 L145.53346,156.064394 L145.458965,156.100379 L145.385732,156.136364 L145.311869,156.17298 L145.238636,156.210227 L145.164773,156.246843 L145.090909,156.284722 L145.018308,156.32197 L144.945076,156.359848 L144.870581,156.398359 L144.798611,156.436237 L144.725379,156.474747 L144.652146,156.513258 L144.578914,156.552399 L144.506313,156.59154 L144.434343,156.630682 L144.361111,156.671086 L144.28851,156.710859 L144.217172,156.750631 L144.144571,156.791667 L144.07197,156.832071 L144.000631,156.873106 L143.92803,156.914141 L143.856061,156.955808 L143.784722,156.996843 L143.713384,157.039141 L143.641414,157.081439 L143.569444,157.123737 L143.498737,157.166035 L143.427399,157.208965 L143.355429,157.252525 L143.284722,157.295455 L143.214646,157.339015 L143.143308,157.383207 L143.072601,157.426768 L143.001894,157.471591 L142.931187,157.515783 L142.86048,157.560606 L142.790404,157.606061 L142.72096,157.650884 L142.650253,157.696338 L142.580177,157.742424 L142.510732,157.787879 L142.440657,157.834596 L142.370581,157.880682 L142.301136,157.927399 L142.231692,157.974747 L142.162247,158.022096 L142.093434,158.068813 L142.024621,158.116793 L141.955177,158.164773 L141.886364,158.212753 L141.817551,158.261364 L141.749369,158.309343 L141.681187,158.358586 L141.611742,158.407828 L141.543561,158.457702 L141.47601,158.506944 L141.407197,158.556818 L141.339646,158.606692 L141.272096,158.656566 L141.204545,158.707702 L141.136364,158.758838 L141.068813,158.809975 L141.001894,158.86048 L140.934343,158.912247 L140.867424,158.964015 L140.800505,159.016414 L140.733586,159.068813 L140.667298,159.120581 L140.600379,159.173611 L140.53346,159.227273 L140.46654,159.280303 L140.400884,159.333333 L140.335227,159.386995 L140.268939,159.441288 L140.203283,159.495581 L140.137626,159.549874 L140.071338,159.604798 L140.006313,159.659722 L139.941288,159.714646 L139.875631,159.770202 L139.810606,159.826389 L139.746212,159.881944 L139.681187,159.938131 L139.616162,159.994949 L139.551136,160.051768 L139.487374,160.108586 L139.42298,160.165404 L139.359217,160.222854 L139.294823,160.280303 L139.231061,160.338384 L139.167298,160.396465 L139.103535,160.455177 L139.039773,160.513889 L138.976641,160.573232 L138.91351,160.631313 L138.850379,160.691288 L138.787247,160.750631 L138.724747,160.809975 L138.662247,160.870581 L138.599116,160.931187 L138.536616,160.991793 L138.475379,161.052399 L138.412879,161.113636 L138.35101,161.174874 L138.289141,161.236742 L138.227273,161.298611 L138.166035,161.36048 L138.104798,161.42298 L138.044192,161.484848 L137.983586,161.547348 L137.922348,161.61048 L137.863005,161.672348 L137.803662,161.734848 L137.743056,161.798611 L137.683712,161.861111 L137.625,161.924242 L137.565657,161.988005 L137.506944,162.051136 L137.448864,162.114899 L137.390783,162.178662 L137.332702,162.242424 L137.275253,162.306818 L137.217803,162.371212 L137.160354,162.434975 L137.103535,162.499369 L137.046717,162.564394 L136.99053,162.628788 L136.934343,162.693182 L136.878157,162.758207 L136.822601,162.823864 L136.767677,162.888258 L136.71149,162.954545 L136.656566,163.019571 L136.602273,163.085227 L136.547348,163.151515 L136.493687,163.21654 L136.440025,163.282197 L136.385732,163.349116 L136.332071,163.415404 L136.27904,163.481061 L136.22601,163.54798 L136.17298,163.614268 L136.120581,163.681187 L136.068182,163.748106 L136.016414,163.815025 L135.964646,163.881944 L135.912879,163.949495 L135.861742,164.017045 L135.810606,164.084596 L135.760101,164.152146 L135.708965,164.219697 L135.659091,164.287247 L135.608586,164.355429 L135.558712,164.423611 L135.50947,164.491793 L135.459596,164.559975 L135.410985,164.628157 L135.361742,164.69697 L135.313131,164.765783 L135.265152,164.833965 L135.21654,164.902778 L135.169192,164.971591 L135.121212,165.041035 L135.073864,165.11048 L135.026515,165.179924 L134.979798,165.248737 L134.933081,165.318813 L134.886364,165.388258 L134.840278,165.457702 L134.794192,165.528409 L134.748737,165.597854 L134.703283,165.667929 L134.657828,165.738636 L134.612374,165.808712 L134.568182,165.878788 L134.523359,165.948864 L134.479167,166.020202 L134.434975,166.09154 L134.391414,166.161616 L134.347854,166.232955 L134.304293,166.303662 L134.261364,166.375 L134.218434,166.446338 L134.176136,166.517045 L134.133207,166.589015 L134.090909,166.660985 L134.049242,166.732323 L134.007576,166.804293 L133.965909,166.876263 L133.925505,166.947601 L133.88447,167.019571 L133.843434,167.092172 L133.80303,167.164141 L133.762626,167.237374 L133.722854,167.309343 L133.683081,167.381313 L133.643939,167.454545 L133.604167,167.527146 L133.565657,167.599747 L133.526515,167.67298 L133.488005,167.746212 L133.450126,167.818813 L133.411616,167.892045 L133.373737,167.965909 L133.33649,168.039141 L133.299242,168.113005 L133.261995,168.186237 L133.225379,168.25947 L133.188763,168.333965 L133.152146,168.407828 L133.116162,168.481061 L133.080177,168.555556 L133.044823,168.629419 L133.00947,168.703283 L132.974116,168.777778 L132.938763,168.852273 L132.904672,168.926768 L132.869949,169.001263 L132.835859,169.075758 L132.801768,169.150253 L132.767677,169.22601 L132.734217,169.300505 L132.701389,169.375 L132.668561,169.450126 L132.635732,169.525253 L132.602904,169.600379 L132.570707,169.675505 L132.53851,169.751263 L132.506944,169.826389 L132.475379,169.902146 L132.443813,169.977904 L132.412879,170.053662 L132.381944,170.129419 L132.351641,170.205177 L132.320707,170.280934 L132.291035,170.356692 L132.260732,170.433081 L132.231061,170.508838 L132.20202,170.585227 L132.172348,170.661616 L132.143939,170.738005 L132.114899,170.814394 L132.08649,170.890783 L132.058712,170.967172 L132.030303,171.043561 L132.002525,171.120581 L131.975379,171.19697 L131.948232,171.27399 L131.921086,171.35101 L131.893939,171.42803 L131.867424,171.505051 L131.84154,171.582071 L131.815025,171.659722 L131.789773,171.736742 L131.763889,171.813763 L131.738636,171.891414 L131.713384,171.968434 L131.688763,172.046086 L131.664141,172.123737 L131.63952,172.201389 L131.61553,172.27904 L131.59154,172.356061 L131.567551,172.434343 L131.544192,172.511995 L131.521465,172.590278 L131.498106,172.667929 L131.475379,172.745581 L131.453283,172.824495 L131.431187,172.902146 L131.409091,172.980429 L131.386995,173.058712 L131.36553,173.136995 L131.344066,173.215278 L131.323232,173.293561 L131.302399,173.371843 L131.282197,173.450758 L131.261995,173.52904 L131.241793,173.607955 L131.221591,173.686237 L131.20202,173.765152 L131.183081,173.844066 L131.16351,173.92298 L131.145202,174.001263 L131.126263,174.080177 L131.107955,174.159091 L131.089646,174.238636 L131.07197,174.317551 L131.054293,174.396465 L131.036616,174.475379 L131.019571,174.554924 L131.002525,174.633838 L130.986111,174.713384 L130.969697,174.792929 L130.953283,174.871843 L130.9375,174.950758 L130.921717,175.030303 L130.905934,175.109848 L130.890783,175.189394 L130.875631,175.268939 L130.861111,175.348485 L130.846591,175.42803 L130.832071,175.507576 L130.818182,175.587121 L130.804293,175.667298 L130.790404,175.746843 L130.777146,175.82702 L130.763889,175.906566 L130.751263,175.986742 L130.738636,176.066288 L130.72601,176.146465 L130.714015,176.22601 L130.70202,176.306187 L130.690657,176.385732 L130.679293,176.465909 L130.667929,176.546086 L130.657197,176.626263 L130.646465,176.706439 L130.635732,176.786616 L130.625631,176.866793 L130.61553,176.94697 L130.606061,177.027146 L130.596591,177.107323 L130.587121,177.1875 L130.578283,177.267677 L130.569444,177.347854 L130.560606,177.428662 L130.552399,177.508838 L130.544192,177.589646 L130.536616,177.669823 L130.52904,177.75 L130.521465,177.830808 L130.51452,177.910985 L130.507576,177.991162 L130.501263,178.07197 L130.494949,178.152778 L130.488636,178.232955 L130.482955,178.313763 L130.477273,178.393939 L130.471591,178.474747 L130.46654,178.555556 L130.46149,178.635732 L130.457071,178.71654 L130.452652,178.797348 L130.448232,178.877525 L130.444444,178.958333 L130.440657,179.039141 L130.436869,179.119318 L130.433712,179.200126 L130.430556,179.280934 L130.42803,179.361742 L130.425505,179.442551 L130.42298,179.523359 L130.421086,179.603535 L130.419192,179.684343 L130.417929,179.765152 L130.416667,179.84596 L130.415404,179.926768 L130.414773,180.007576 L130.414141,180.087753 L130.41351,180.168561 L130.41351,180.249369 L130.41351,180.330177 L130.414141,180.410985 L130.414773,180.491793 L130.415404,180.572601 L130.416667,180.653409 L130.417929,180.733586 L130.419192,180.814394 L130.421086,180.895202 L130.42298,180.97601 L130.425505,181.056818 L130.42803,181.137626 L130.430556,181.217803 L130.433712,181.298611 L130.436869,181.379419 L130.440657,181.460227 L130.444444,181.541035 L130.448232,181.621212 L130.452652,181.70202 L130.457071,181.782828 L130.46149,181.863005 L130.46654,181.943813 L130.471591,182.02399 L130.477273,182.104798 L130.482955,182.185606 L130.488636,182.265783 L130.494949,182.346591 L130.501263,182.426768 L130.507576,182.507576 L130.51452,182.587753 L130.521465,182.668561 L130.52904,182.748737 L130.536616,182.829545 L130.544192,182.909722 L130.552399,182.989899 L130.560606,183.070707 L130.569444,183.150884 L130.578283,183.231061 L130.587121,183.311237 L130.596591,183.392045 L130.606061,183.471591 L130.61553,183.551768 L130.625631,183.632576 L130.635732,183.712753 L130.646465,183.792929 L130.657197,183.872475 L130.667929,183.952652 L130.679293,184.032828 L130.690657,184.113005 L130.70202,184.192551 L130.714015,184.272727 L130.72601,184.352904 L130.738636,184.433081 L130.751263,184.512626 L130.763889,184.592803 L130.777146,184.672348 L130.790404,184.751894 L130.804293,184.832071 L130.818182,184.911616 L130.832071,184.991162 L130.846591,185.070707 L130.861111,185.150253 L130.875631,185.229798 L130.890783,185.309343 L130.905934,185.388889 L130.921717,185.468434 L130.9375,185.54798 L130.953283,185.627525 L130.969697,185.706439 L130.986111,185.785985 L131.002525,185.86553 L131.019571,185.944444 L131.036616,186.023359 L131.054293,186.102904 L131.07197,186.181818 L131.089646,186.260732 L131.107955,186.339646 L131.126263,186.418561 L131.145202,186.497475 L131.16351,186.576389 L131.183081,186.655303 L131.20202,186.734217 L131.221591,186.8125 L131.241793,186.891351 L131.261995,186.969823 L131.282197,187.048359 L131.302399,187.126957 L131.323232,187.205556 L131.344066,187.283712 L131.36553,187.362184 L131.386995,187.440467 L131.409091,187.518434 L131.431187,187.59678 L131.453283,187.674874 L131.475379,187.752904 L131.498106,187.831124 L131.521465,187.909154 L131.544192,187.986806 L131.567551,188.064646 L131.59154,188.142677 L131.61553,188.220076 L131.63952,188.297727 L131.664141,188.375631 L131.688763,188.45303 L131.713384,188.530556 L131.738636,188.607828 L131.763889,188.685227 L131.789773,188.762563 L131.815025,188.839457 L131.84154,188.916982 L131.867424,188.994192 L131.893939,189.070896 L131.921086,189.14779 L131.948232,189.224811 L131.975379,189.301768 L132.002525,189.378535 L132.030303,189.454924 L132.058712,189.531692 L132.08649,189.608396 L132.114899,189.684912 L132.143939,189.761364 L132.172348,189.837184 L132.20202,189.913636 L132.231061,189.990088 L132.260732,190.066162 L132.291035,190.142298 L132.320707,190.218056 L132.351641,190.293939 L132.381944,190.369886 L132.412879,190.445455 L132.443813,190.521149 L132.475379,190.597033 L132.506944,190.672475 L132.53851,190.747601 L132.570707,190.823359 L132.602904,190.898359 L132.635732,190.973611 L132.668561,191.048864 L132.701389,191.123801 L132.734848,191.198737 L132.767677,191.273232 L132.801768,191.348674 L132.835859,191.423359 L132.869949,191.497664 L132.90404,191.572033 L132.938763,191.646528 L132.974116,191.721402 L133.00947,191.795581 L133.044823,191.869508 L133.080177,191.943687 L133.116162,192.017614 L133.152146,192.091477 L133.188763,192.165657 L133.225379,192.23971 L133.261995,192.313005 L133.299242,192.386237 L133.33649,192.460038 L133.373737,192.53346 L133.411616,192.606755 L133.450126,192.679987 L133.488005,192.752778 L133.526515,192.826263 L133.565657,192.899242 L133.604167,192.971843 L133.643939,193.044697 L133.683081,193.117424 L133.722854,193.189773 L133.762626,193.261995 L133.80303,193.334848 L133.843434,193.406944 L133.88447,193.47923 L133.925505,193.551515 L133.965909,193.62298 L134.007576,193.695076 L134.049242,193.76673 L134.090909,193.838258 L134.133207,193.909722 L134.175505,193.981439 L134.218434,194.05303 L134.261364,194.124306 L134.304293,194.195391 L134.347854,194.266414 L134.391414,194.337311 L134.434975,194.407765 L134.479167,194.478914 L134.523359,194.549495 L134.567551,194.61976 L134.613005,194.690593 L134.657828,194.760922 L134.703283,194.831187 L134.748737,194.901073 L134.794192,194.97077 L134.840278,195.04072 L134.886364,195.110669 L134.933081,195.180745 L134.979798,195.25 L135.026515,195.319003 L135.073864,195.38851 L135.121212,195.458207 L135.169192,195.52721 L135.21654,195.596023 L135.26452,195.66471 L135.313131,195.733396 L135.361742,195.802273 L135.410985,195.871023 L135.459596,195.939078 L135.50947,196.00726 L135.558712,196.075758 L135.608586,196.14375 L135.659091,196.211995 L135.708965,196.279482 L135.760101,196.347159 L135.810606,196.41471 L135.861742,196.481881 L135.912879,196.549684 L135.964646,196.616919 L136.016414,196.683775 L136.068182,196.750821 L136.120581,196.81774 L136.17298,196.884533 L136.22601,196.951263 L136.27904,197.017424 L136.332071,197.083586 L136.385732,197.150126 L136.439394,197.216288 L136.493687,197.282386 L136.54798,197.348169 L136.602273,197.413699 L136.656566,197.47923 L136.712121,197.544949 L136.767045,197.610164 L136.822601,197.675316 L136.878788,197.740972 L136.934343,197.805366 L136.99053,197.870202 L137.046717,197.935038 L137.103535,197.999495 L137.160354,198.064078 L137.217803,198.128093 L137.275253,198.192361 L137.332702,198.256376 L137.390783,198.320265 L137.448864,198.384028 L137.506944,198.447664 L137.566288,198.511364 L137.625,198.574811 L137.683712,198.637689 L137.743056,198.700568 L137.80303,198.763826 L137.863005,198.826705 L137.92298,198.889078 L137.983586,198.951705 L138.044192,199.014457 L138.104798,199.076263 L138.166035,199.138321 L138.227273,199.200505 L138.289141,199.2625 L138.35101,199.323927 L138.412879,199.38529 L138.475379,199.446591 L138.537247,199.507449 L138.599747,199.567992 L138.661616,199.628093 L138.724747,199.688384 L138.787879,199.748548 L138.850379,199.808081 L138.91351,199.867551 L138.976641,199.926578 L139.039773,199.985101 L139.103535,200.044192 L139.167298,200.102588 L139.231061,200.160543 L139.294823,200.218624 L139.359217,200.276705 L139.42298,200.333649 L139.487374,200.390783 L139.551768,200.447854 L139.616162,200.50423 L139.681187,200.561174 L139.746212,200.617424 L139.810606,200.672917 L139.875631,200.728662 L139.941288,200.78428 L140.006313,200.83952 L140.07197,200.894571 L140.136995,200.948864 L140.202652,201.003346 L140.269571,201.058081 L140.335227,201.111869 L140.400884,201.16553 L140.467172,201.219003 L140.534091,201.272475 L140.600379,201.325631 L140.666667,201.377904 L140.733586,201.430871 L140.800505,201.482828 L140.867424,201.534848 L140.934975,201.587121 L141.001894,201.638447 L141.068813,201.689331 L141.136364,201.740404 L141.204545,201.79173 L141.272096,201.842487 L141.339646,201.892361 L141.407197,201.942424 L141.47601,201.992487 L141.544192,202.042045 L141.612374,202.091477 L141.680556,202.140404 L141.748737,202.189205 L141.818182,202.238258 L141.886995,202.286869 L141.955177,202.334659 L142.024621,202.382576 L142.093434,202.43024 L142.162247,202.477399 L142.231692,202.524684 L142.301768,202.57197 L142.371212,202.618813 L142.440657,202.664962 L142.510732,202.711237 L142.580177,202.757134 L142.649621,202.802525 L142.720328,202.848169 L142.791035,202.893876 L142.861111,202.938952 L142.931187,202.983333 L143.001894,203.027967 L143.072601,203.072285 L143.143308,203.116351 L143.214646,203.160354 L143.284722,203.203535 L143.355429,203.24678 L143.42803,203.290467 L143.499369,203.333396 L143.569444,203.375568 L143.641414,203.417992 L143.713384,203.460227 L143.784091,203.501831 L143.856061,203.543434 L143.928662,203.585227 L144.000631,203.626452 L144.07197,203.667109 L144.144571,203.707891 L144.217172,203.748422 L144.28851,203.788194 L144.361111,203.82822 L144.434343,203.868371 L144.506944,203.907828 L144.578914,203.94678 L144.652146,203.985922 L144.725379,204.024684 L144.798611,204.063258 L144.871843,204.101578 L144.945076,204.139646 L145.017677,204.17721 L145.090909,204.214836 L145.165404,204.252588 L145.238636,204.289331 L145.311869,204.326136 L145.385732,204.362816 L145.458965,204.398864 L145.53346,204.435038 L145.607955,204.471275 L145.682449,204.507008 L145.755682,204.542172 L145.830177,204.577399 L145.904672,204.612311 L145.979167,204.647033 L146.053662,204.681566 L146.128157,204.71553 L146.202652,204.749369 L146.277778,204.783207 L146.352904,204.816793 L146.427399,204.850063 L146.502525,204.883081 L146.578283,204.915972 L146.653409,204.948485 L146.728535,204.980808 L146.803662,205.012626 L146.878788,205.044381 L146.954545,205.076073 L147.030303,205.107449 L147.106061,205.138573 L147.181187,205.169129 L147.256944,205.199811 L147.333965,205.230492 L147.409722,205.260669 L147.48548,205.290341 L147.561237,205.320076 L147.637626,205.349432 L147.714015,205.378662 L147.790404,205.407702 L147.866162,205.436111 L147.942551,205.464583 L148.019571,205.492866 L148.09596,205.520833 L148.17298,205.548611 L148.25,205.576136 L148.32702,205.603472 L148.40404,205.630556 L148.480429,205.657323 L148.556818,205.683649 L148.63447,205.709975 L148.71149,205.736048 L148.789141,205.761932 L148.866162,205.7875 L148.943182,205.812626 L149.020202,205.837753 L149.099116,205.862942 L149.176768,205.887626 L149.253157,205.911742 L149.331439,205.935922 L149.409091,205.959912 L149.486742,205.983586 L149.565025,206.007008 L149.642045,206.029987 L149.720328,206.05303 L149.79798,206.075694 L149.876263,206.098169 L149.954545,206.120455 L150.032828,206.142487 L150.111111,206.164268 L150.189394,206.185795 L150.268308,206.207134 L150.345328,206.227904 L150.424242,206.248737 L150.503157,206.269318 L150.581439,206.289646 L150.660354,206.309722 L150.738005,206.329419 L150.816919,206.34899 L150.896465,206.368561 L150.975379,206.387689 L151.053662,206.406376 L151.132576,206.425063 L151.21149,206.443497 L151.291035,206.461616 L151.369949,206.479609 L151.448232,206.497096 L151.527778,206.51452 L151.606692,206.531755 L151.686237,206.548674 L151.765152,206.565404 L151.844697,206.581881 L151.924242,206.598169 L152.003788,206.614205 L152.083333,206.629987 L152.162247,206.645328 L152.241793,206.660606 L152.321338,206.675694 L152.400884,206.690467 L152.480429,206.705051 L152.560606,206.719381 L152.640152,206.73346 L152.719066,206.747159 L152.799242,206.760732 L152.878788,206.774116 L152.958965,206.787247 L153.03851,206.800126 L153.118687,206.812753 L153.198864,206.825189 L153.277778,206.837184 L153.357955,206.849116 L153.438131,206.860795 L153.518308,206.872222 L153.598485,206.883396 L153.678662,206.894381 L153.758838,206.905114 L153.839015,206.915593 L153.919192,206.925821 L153.998737,206.935732 L154.079545,206.945455 L154.159722,206.954987 L154.239899,206.964268 L154.320707,206.973295 L154.400884,206.982071 L154.481061,206.990657 L154.560606,206.998864 L154.641414,207.006944 L154.721591,207.014773 L154.802399,207.022348 L154.883207,207.029672 L154.963384,207.036806 L155.044192,207.043687 L155.123737,207.050189 L155.204545,207.056566 L155.285354,207.062753 L155.36553,207.068624 L155.446338,207.074306 L155.527146,207.079672 L155.607955,207.084912 L155.688763,207.089836 L155.769571,207.094571 L155.849116,207.098927 L155.929924,207.103157 L156.010732,207.107134 L156.09154,207.110859 L156.172348,207.114394 L156.253157,207.117614 L156.333965,207.120644 L156.41351,207.123359 L156.494318,207.125884 L156.575126,207.128157 L156.655934,207.13024 L156.736742,207.132071 L156.817551,207.133586 L156.898359,207.134912 L156.978535,207.135985 L157.059343,207.136869 L157.140152,207.137437 L157.22096,207.137816 L157.301768,207.137942 L157.382576,207.137816 L157.463384,207.137437 L157.544192,207.136869 L157.625,207.135985 L157.705177,207.134912 L157.785985,207.133586 L157.866793,207.132071 L157.947601,207.13024 L158.028409,207.128157 L158.109217,207.125884 L158.190025,207.123359 L158.270202,207.120644 L158.35101,207.117614 L158.431818,207.114394 L158.511995,207.110859 L158.592803,207.107134 L158.673611,207.103157 L158.754419,207.098927 L158.834596,207.094571 L158.915404,207.089836 L158.995581,207.084912 L159.076389,207.079672 L159.157197,207.074306 L159.238005,207.068624 L159.318813,207.062753 L159.39899,207.056566 L159.479798,207.050189 L159.559343,207.043687 L159.640152,207.036806 L159.72096,207.029672 L159.801136,207.022348 L159.881944,207.014773 L159.962121,207.006944 L160.042929,206.998864 L160.122475,206.990657 L160.202652,206.982071 L160.28346,206.973295 L160.363636,206.964268 L160.443813,206.954987 L160.524621,206.945455 L160.604798,206.935732 L160.684343,206.925821 L160.76452,206.915593 L160.844697,206.905114 L160.924874,206.894381 L161.005051,206.883396 L161.085227,206.872222 L161.165404,206.860795 L161.245581,206.849116 L161.325758,206.837184 L161.404672,206.825189 L161.484848,206.812753 L161.565025,206.800126 L161.644571,206.787247 L161.724747,206.774116 L161.804924,206.760732 L161.88447,206.747159 L161.963384,206.73346 L162.043561,206.719381 L162.123106,206.705051 L162.202652,206.690467 L162.282197,206.675694 L162.362374,206.660606 L162.441919,206.645328 L162.520202,206.629987 L162.599747,206.614205 L162.679293,206.598169 L162.758838,206.581881 L162.838384,206.565404 L162.917298,206.548674 L162.996843,206.531755 L163.076389,206.51452 L163.155303,206.497096 L163.233586,206.479609 L163.313131,206.461616 L163.392045,206.443497 L163.47096,206.425063 L163.549874,206.406376 L163.628157,206.387689 L163.707071,206.368561 L163.786616,206.34899 L163.86553,206.329419 L163.943813,206.309722 L164.022096,206.289646 L164.10101,206.269318 L164.179293,206.248737 L164.258207,206.227904 L164.335859,206.207134 L164.414141,206.185795 L164.492424,206.164268 L164.570707,206.142487 L164.64899,206.120455 L164.727273,206.098169 L164.805556,206.075694 L164.883838,206.05303 L164.96149,206.029987 L165.039141,206.007008 L165.116793,205.983586 L165.194444,205.959912 L165.272727,205.935922 L165.350379,205.911742 L165.427399,205.887626 L165.505051,205.862942 L165.583333,205.837753 L165.660985,205.812626 L165.737374,205.7875 L165.814394,205.761932 L165.892045,205.736048 L165.969697,205.709975 L166.046717,205.683649 L166.123106,205.657323 L166.200126,205.630556 L166.277146,205.603472 L166.354167,205.576136 L166.430556,205.548611 L166.507576,205.520833 L166.583965,205.492866 L166.660985,205.464583 L166.737374,205.436111 L166.813131,205.407702 L166.88952,205.378662 L166.965909,205.349432 L167.042298,205.320076 L167.118687,205.290341 L167.193813,205.260669 L167.270202,205.230492 L167.346591,205.199811 L167.42298,205.169129 L167.497475,205.138573 L167.573232,205.107449 L167.64899,205.076073 L167.724747,205.044381 L167.800505,205.012626 L167.875,204.980808 L167.950758,204.948485 L168.025884,204.915972 L168.10101,204.883081 L168.176136,204.850063 L168.251263,204.81673 L168.326389,204.783207 L168.400884,204.749495 L168.47601,204.71553 L168.549874,204.681566 L168.624369,204.647033 L168.698864,204.612311 L168.773359,204.577399 L168.847854,204.542172 L168.921717,204.507008 L168.995581,204.471275 L169.070707,204.435038 L169.144571,204.398864 L169.217803,204.362816 L169.291667,204.326136 L169.36553,204.289331 L169.438131,204.252588 L169.512626,204.214836 L169.585859,204.17721 L169.659091,204.139646 L169.732323,204.101578 L169.805556,204.063258 L169.878157,204.024684 L169.951389,203.985922 L170.024621,203.94678 L170.096591,203.907828 L170.169192,203.868371 L170.242424,203.82822 L170.315025,203.788194 L170.386995,203.748422 L170.458965,203.707891 L170.531566,203.667109 L170.602904,203.626452 L170.674874,203.585227 L170.747475,203.543434 L170.819444,203.501831 L170.890783,203.460227 L170.962121,203.417992 L171.034091,203.375568 L171.104798,203.333396 L171.176136,203.290467 L171.248106,203.24678 L171.318813,203.203535 L171.38952,203.160227 L171.460227,203.116351 L171.530934,203.072412 L171.601641,203.027967 L171.672348,202.983333 L171.742424,202.938952 L171.8125,202.893876 L171.883838,202.848169 L171.953914,202.802525 L172.023359,202.757134 L172.093434,202.711237 L172.162879,202.664962 L172.232323,202.618813 L172.301768,202.57197 L172.371843,202.524684 L172.441288,202.477399 L172.510101,202.43024 L172.579545,202.382576 L172.648359,202.334659 L172.71654,202.286869 L172.785354,202.238258 L172.854798,202.189205 L172.92298,202.140404 L172.991162,202.091477 L173.059975,202.042045 L173.128157,201.992487 L173.196338,201.942424 L173.263889,201.892361 L173.331439,201.842487 L173.39899,201.79173 L173.467803,201.740404 L173.534722,201.689331 L173.601641,201.638447 L173.668561,201.587121 L173.736111,201.534848 L173.803662,201.482828 L173.869949,201.430871 L173.936869,201.377904 L174.003157,201.325631 L174.069444,201.272475 L174.136364,201.219003 L174.202652,201.16553 L174.268308,201.111869 L174.333965,201.058081 L174.400884,201.003346 L174.46654,200.948864 L174.531566,200.894571 L174.597222,200.83952 L174.662247,200.78428 L174.727904,200.728662 L174.792929,200.672917 L174.857323,200.617424 L174.922348,200.561174 L174.987374,200.50423 L175.051768,200.447854 L175.116162,200.390783 L175.180556,200.333649 L175.244318,200.276705 L175.308712,200.218624 L175.373106,200.160543 L175.436237,200.102588 L175.5,200.044192 L175.563763,199.985101 L175.626894,199.926578 L175.690025,199.867551 L175.753157,199.808081 L175.815657,199.748548 L175.878788,199.688384 L175.941919,199.628093 L176.003788,199.567992 L176.066288,199.507449 L176.128788,199.446591 L176.190657,199.38529 L176.252525,199.323927 L176.314394,199.2625 L176.376263,199.200505 L176.4375,199.13851 L176.498737,199.076452 L176.559343,199.014457 L176.619949,198.951957 L176.680556,198.889268 L176.741162,198.826515 L176.801136,198.763636 L176.86048,198.700821 L176.919823,198.637879 L176.978535,198.574811 L177.037879,198.511364 L177.096591,198.447664 L177.154672,198.38428 L177.212753,198.320518 L177.270833,198.256376 L177.328283,198.192614 L177.385732,198.128283 L177.443182,198.063889 L177.5,197.999495 L177.556187,197.93548 L177.613005,197.870455 L177.669823,197.805114 L177.724747,197.740972 L177.780934,197.675568 L177.83649,197.610164 L177.891414,197.545202 L177.946338,197.479482 L178.001263,197.413699 L178.055556,197.348169 L178.109848,197.282386 L178.164141,197.216288 L178.217803,197.150379 L178.271465,197.083586 L178.325126,197.017172 L178.377525,196.951263 L178.429924,196.884785 L178.482955,196.817992 L178.535354,196.750821 L178.587121,196.684028 L178.638889,196.617172 L178.690657,196.549684 L178.741793,196.481881 L178.792929,196.41471 L178.843434,196.347412 L178.893939,196.279798 L178.944444,196.211742 L178.994949,196.14375 L179.044192,196.07601 L179.094066,196.00726 L179.143939,195.939078 L179.192551,195.871338 L179.241162,195.802525 L179.290404,195.733396 L179.339015,195.66471 L179.386995,195.596023 L179.434343,195.52721 L179.482323,195.458207 L179.529672,195.388826 L179.57702,195.319318 L179.623737,195.249747 L179.670455,195.180745 L179.717172,195.110922 L179.763258,195.04072 L179.809343,194.971023 L179.854798,194.901389 L179.900253,194.831187 L179.945707,194.760922 L179.99053,194.690593 L180.035354,194.620013 L180.080177,194.549495 L180.124369,194.478914 L180.168561,194.408081 L180.212121,194.337311 L180.255682,194.266414 L180.299242,194.195391 L180.342172,194.124306 L180.385101,194.05303 L180.427399,193.981692 L180.470328,193.909722 L180.512626,193.838258 L180.553662,193.767045 L180.59596,193.695076 L180.636995,193.623295 L180.67803,193.551515 L180.719066,193.478914 L180.760101,193.406944 L180.799874,193.335164 L180.840278,193.262311 L180.880682,193.189773 L180.920455,193.117424 L180.959596,193.044697 L180.998737,192.972159 L181.037879,192.899242 L181.076389,192.826263 L181.114899,192.753157 L181.153409,192.679987 L181.191288,192.606755 L181.229167,192.53346 L181.267045,192.460038 L181.304293,192.386553 L181.34154,192.313005 L181.378157,192.239331 L181.414773,192.165972 L181.450758,192.091856 L181.487374,192.017614 L181.523359,191.943687 L181.558712,191.869697 L181.594066,191.795581 L181.629419,191.721402 L181.664141,191.646843 L181.698864,191.571843 L181.733586,191.497475 L181.767677,191.423737 L181.801136,191.348801 L181.835227,191.273232 L181.868687,191.198927 L181.902146,191.123801 L181.934975,191.048674 L181.967803,190.973801 L182,190.898548 L182.032828,190.823169 L182.064394,190.74779 L182.096591,190.672601 L182.128157,190.597033 L182.159722,190.521149 L182.190657,190.445455 L182.22096,190.370013 L182.251894,190.293939 L182.282197,190.218434 L182.3125,190.142424 L182.342172,190.065783 L182.371843,189.990088 L182.401515,189.914015 L182.430556,189.8375 L182.459596,189.761553 L182.488005,189.684912 L182.516414,189.608207 L182.544823,189.531503 L182.572601,189.455114 L182.600379,189.378914 L182.628157,189.301578 L182.655303,189.224621 L182.682449,189.14798 L182.708965,189.071275 L182.73548,188.994444 L182.761995,188.916793 L182.787879,188.83971 L182.813763,188.762753 L182.839646,188.685038 L182.864899,188.607639 L182.890152,188.530556 L182.914773,188.453409 L182.939394,188.375821 L182.964015,188.297538 L182.988005,188.220265 L183.011364,188.142866 L183.035354,188.064899 L183.058712,187.987058 L183.082071,187.909154 L183.104798,187.830934 L183.127525,187.752715 L183.150253,187.675063 L183.172348,187.59678 L183.194444,187.518434 L183.215909,187.440657 L183.237374,187.362184 L183.258838,187.283712 L183.279672,187.205745 L183.300505,187.127146 L183.321338,187.048106 L183.34154,186.969823 L183.361742,186.89154 L183.381313,186.8125 L183.400884,186.734217 L183.420455,186.655303 L183.439394,186.576389 L183.458333,186.497475 L183.476641,186.418561 L183.495581,186.339646 L183.513258,186.260732 L183.531566,186.181818 L183.549242,186.102904 L183.566288,186.023359 L183.583333,185.944444 L183.600379,185.86553 L183.617424,185.785985 L183.633838,185.707071 L183.650253,185.626894 L183.666035,185.547348 L183.681818,185.469066 L183.69697,185.38952 L183.712753,185.309343 L183.727273,185.229798 L183.742424,185.150253 L183.756944,185.070707 L183.771465,184.991162 L183.785354,184.911616 L183.799242,184.832071 L183.8125,184.752525 L183.825758,184.672348 L183.839015,184.592803 L183.852273,184.512626 L183.864899,184.432449 L183.876894,184.352904 L183.888889,184.272727 L183.900884,184.192551 L183.912879,184.113005 L183.924242,184.032828 L183.935606,183.952652 L183.946338,183.872475 L183.957071,183.792298 L183.967172,183.712753 L183.977904,183.632576 L183.987374,183.552399 L183.997475,183.472222 L184.006944,183.392045 L184.016414,183.311237 L184.025253,183.231061 L184.034091,183.150884 L184.042298,183.070707 L184.050505,182.989899 L184.058712,182.909722 L184.066919,182.829545 L184.074495,182.748737 L184.081439,182.668561 L184.088384,182.588384 L184.095328,182.507576 L184.102273,182.426768 L184.108586,182.346591 L184.114899,182.265783 L184.120581,182.185606 L184.126263,182.104798 L184.131313,182.02399 L184.136995,181.943813 L184.141414,181.863005 L184.146465,181.782828 L184.150884,181.70202 L184.155303,181.621212 L184.159091,181.541035 L184.162879,181.460227 L184.166035,181.379419 L184.169192,181.298611 L184.172348,181.217803 L184.175505,181.136995 L184.17803,181.056818 L184.179924,180.97601 L184.181818,180.895202 L184.183712,180.814394 L184.185606,180.733586 L184.186869,180.653409 L184.188131,180.572601 L184.188763,180.491793 L184.189394,180.410985 L184.189394,180.330177 L184.190025,180.249369 L184.189394,180.168561 L184.189394,180.088384 L184.188763,180.007576 L184.188131,179.926768 L184.186869,179.84596 L184.185606,179.765152 L184.183712,179.684343 L184.181818,179.603535 L184.179924,179.522727 L184.17803,179.441919 L184.175505,179.361742 L184.172348,179.280934 L184.169192,179.200758 L184.166035,179.119949 L184.162879,179.039141 L184.159091,178.958333 L184.155303,178.877525 L184.150884,178.797348 L184.146465,178.71654 L184.141414,178.635732 L184.136995,178.554924 L184.131313,178.474747 L184.126263,178.393939 L184.120581,178.313763 L184.114899,178.232955 L184.108586,178.152778 L184.102273,178.07197 L184.095328,177.991162 L184.088384,177.910985 L184.081439,177.830808 L184.074495,177.75 L184.066919,177.669823 L184.058712,177.589646 L184.050505,177.508838 L184.042298,177.428662 L184.034091,177.347854 L184.025253,177.268308 L184.016414,177.1875 L184.006944,177.107323 L183.997475,177.027146 L183.987374,176.946338 L183.977904,176.866793 L183.967172,176.786616 L183.957071,176.706439 L183.946338,176.626263 L183.935606,176.546086 L183.924242,176.465909 L183.912879,176.385732 L183.900884,176.306187 L183.888889,176.22601 L183.876894,176.146465 L183.864899,176.066288 L183.852273,175.986742 L183.839015,175.906566 L183.825758,175.826389 L183.8125,175.746843 L183.799242,175.667298 L183.785354,175.587121 L183.771465,175.507576 L183.756944,175.42803 L183.742424,175.348485 L183.727273,175.268939 L183.712753,175.189394 L183.69697,175.109848 L183.681818,175.030303 L183.666035,174.951389 L183.650253,174.871843 L183.633838,174.792298 L183.617424,174.713384 L183.600379,174.633838 L183.583333,174.554293 L183.566288,174.475379 L183.549242,174.396465 L183.531566,174.316919 L183.513258,174.238005 L183.495581,174.159091 L183.476641,174.080177 L183.458333,174.001263 L183.439394,173.92298 L183.420455,173.844066 L183.400884,173.765152 L183.381313,173.686237 L183.361742,173.607323 L183.34154,173.52904 L183.321338,173.450758 L183.300505,173.371843 L183.279672,173.293561 L183.258838,173.215278 L183.237374,173.136995 L183.215909,173.058712 L183.194444,172.980429 L183.172348,172.902146 L183.150253,172.824495 L183.127525,172.746212 L183.104798,172.667929 L183.082071,172.590278 L183.058712,172.511995 L183.035354,172.434343 L183.011364,172.356061 L182.988005,172.27904 L182.964015,172.201389 L182.939394,172.123106 L182.914773,172.045455 L182.890152,171.968434 L182.864899,171.891414 L182.839646,171.813763 L182.813763,171.736111 L182.787879,171.659091 L182.761995,171.582071 L182.73548,171.504419 L182.708965,171.42803 L182.682449,171.35101 L182.655303,171.274621 L182.628157,171.197601 L182.600379,171.119949 L182.572601,171.043561 L182.544823,170.967803 L182.516414,170.890783 L182.488005,170.814394 L182.459596,170.738005 L182.430556,170.661616 L182.401515,170.585227 L182.371843,170.508838 L182.342172,170.433081 L182.3125,170.356692 L182.282197,170.280934 L182.251894,170.205177 L182.22096,170.128788 L182.190657,170.053662 L182.159722,169.977904 L182.128157,169.902146 L182.096591,169.826389 L182.064394,169.750631 L182.032828,169.676136 L182,169.600379 L181.967803,169.525253 L181.934975,169.450126 L181.902146,169.375 L181.868687,169.300505 L181.835227,169.22601 L181.801136,169.150253 L181.767677,169.075126 L181.733586,169.001263 L181.698864,168.926768 L181.664141,168.852273 L181.629419,168.777778 L181.594066,168.703283 L181.558712,168.629419 L181.523359,168.555556 L181.487374,168.481061 L181.450758,168.407197 L181.414773,168.333333 L181.378157,168.25947 L181.34154,168.186237 L181.304293,168.112374 L181.267045,168.039141 L181.229167,167.965909 L181.191288,167.892045 L181.153409,167.818813 L181.114899,167.745581 L181.07702,167.67298 L181.037879,167.599747 L180.998737,167.527146 L180.959596,167.454545 L180.920455,167.381313 L180.880682,167.309343 L180.840278,167.236742 L180.799874,167.164141 L180.760101,167.092172 L180.719066,167.020202 L180.67803,166.947601 L180.636995,166.875631 L180.59596,166.804293 L180.553662,166.731692 L180.512626,166.660985 L180.470328,166.589015 L180.427399,166.517045 L180.385101,166.446338 L180.342172,166.375 L180.299242,166.303662 L180.255682,166.232955 L180.212121,166.161616 L180.168561,166.090909 L180.124369,166.020202 L180.079545,165.948864 L180.035354,165.878788 L179.991162,165.808712 L179.945707,165.738636 L179.900253,165.667929 L179.854798,165.597854 L179.809343,165.527778 L179.763258,165.457702 L179.717172,165.388258 L179.670455,165.318813 L179.623737,165.249369 L179.57702,165.179924 L179.529672,165.11048 L179.482323,165.041035 L179.434343,164.971591 L179.386995,164.902778 L179.338384,164.833965 L179.290404,164.765783 L179.241793,164.69697 L179.192551,164.627525 L179.143939,164.559975 L179.094066,164.491793 L179.044192,164.42298 L178.994949,164.355429 L178.944444,164.287247 L178.893939,164.219066 L178.843434,164.151515 L178.792929,164.084596 L178.741793,164.017045 L178.690657,163.949495 L178.638889,163.881944 L178.587121,163.815025 L178.535354,163.748106 L178.482955,163.681187 L178.429924,163.614268 L178.377525,163.54798 L178.324495,163.481692 L178.271465,163.415404 L178.217803,163.349116 L178.16351,163.282197 L178.109848,163.21654 L178.056187,163.151515 L178.001263,163.085227 L177.946338,163.019571 L177.892045,162.954545 L177.83649,162.888258 L177.780934,162.823232 L177.725379,162.758207 L177.669192,162.693813 L177.613005,162.628788 L177.556818,162.563763 L177.5,162.499369 L177.443182,162.434975 L177.385732,162.370581 L177.328283,162.306187 L177.270833,162.242424 L177.212753,162.178662 L177.15404,162.114268 L177.096591,162.051136 L177.037879,161.988005 L176.978535,161.924242 L176.919823,161.861111 L176.86048,161.79798 L176.800505,161.734848 L176.741162,161.672348 L176.681187,161.609848 L176.619949,161.547348 L176.559343,161.484848 L176.498737,161.422348 L176.4375,161.36048 L176.376263,161.298611 L176.314394,161.236742 L176.252525,161.174874 L176.190657,161.113636 L176.128788,161.052399 L176.066919,160.991793 L176.004419,160.931187 L175.941288,160.870581 L175.878788,160.809975 L175.816288,160.750631 L175.753157,160.691288 L175.690025,160.631313 L175.627525,160.573232 L175.563763,160.513889 L175.5,160.455177 L175.436237,160.396465 L175.373106,160.338384 L175.308712,160.280303 L175.244949,160.222854 L175.180556,160.165404 L175.116162,160.108586 L175.052399,160.051768 L174.987374,159.994949 L174.922348,159.938131 L174.857323,159.881944 L174.792929,159.826389 L174.727904,159.770202 L174.662247,159.714646 L174.597854,159.659722 L174.532197,159.604798 L174.465909,159.549874 L174.400253,159.495581 L174.334596,159.441288 L174.268308,159.386995 L174.202652,159.333333 L174.136995,159.280303 L174.070076,159.227273 L174.003157,159.173611 L173.936869,159.120581 L173.870581,159.068813 L173.803662,159.016414 L173.736111,158.964015 L173.669192,158.912247 L173.601641,158.86048 L173.534722,158.809975 L173.467803,158.758838 L173.39899,158.707702 L173.331439,158.656566 L173.263889,158.606692 L173.196338,158.556818 L173.128157,158.506944 L173.060606,158.457702 L172.991793,158.407828 L172.92298,158.358586 L172.854167,158.309343 L172.785985,158.261364 L172.717172,158.212753 L172.648359,158.164773 L172.579545,158.116793 L172.510101,158.068813 L172.441288,158.022096 L172.371843,157.974747 L172.302399,157.927399 L172.232955,157.880682 L172.162879,157.834596 L172.093434,157.787879 L172.023359,157.742424 L171.953283,157.696338 L171.883207,157.650884 L171.813131,157.606061 L171.743056,157.560606 L171.672348,157.515783 L171.601641,157.471591 L171.530934,157.426768 L171.460227,157.383207 L171.38952,157.339015 L171.318813,157.295455 L171.248106,157.252525 L171.176768,157.208965 L171.105429,157.166035 L171.034091,157.123737 L170.962121,157.081439 L170.890783,157.039141 L170.818813,156.996843 L170.747475,156.955808 L170.675505,156.914141 L170.602904,156.873106 L170.531566,156.832071 L170.458965,156.791667 L170.386995,156.750631 L170.315025,156.710859 L170.242424,156.671086 L170.169192,156.630682 L170.097222,156.59154 L170.024621,156.552399 L169.951389,156.513258 L169.878157,156.474747 L169.805556,156.436237 L169.732955,156.398359 L169.659091,156.359848 L169.585227,156.32197 L169.512626,156.284722 L169.438763,156.246843 L169.36553,156.210227 L169.291667,156.17298 L169.217803,156.136364 L169.144571,156.100379 L169.070707,156.064394 L168.996212,156.028409 L168.922348,155.992424 L168.847222,155.957071 L168.773359,155.921717 L168.699495,155.887626 L168.624369,155.852273 L168.549874,155.817551 L168.47601,155.784091 L168.400884,155.75 L168.326389,155.715909 L168.251263,155.682449 L168.176136,155.649621 L168.10101,155.616162 L168.025884,155.583333 L167.951389,155.551136 L167.875631,155.518939 L167.799242,155.486742 L167.724747,155.455177 L167.64899,155.423611 L167.573232,155.392045 L167.498737,155.361111 L167.421717,155.330177 L167.34596,155.299242 L167.270833,155.268939 L167.195076,155.239268 L167.118687,155.208965 L167.042298,155.179293 L166.965909,155.150253 L166.88952,155.120581 L166.813131,155.09154 L166.737374,155.063131 L166.660985,155.034722 L166.583965,155.006313 L166.507576,154.978535 L166.430556,154.950758 L166.354167,154.92298 L166.277146,154.895833 L166.200758,154.869318 L166.123737,154.842172 L166.046086,154.815657 L165.969697,154.789141 L165.892045,154.763258 L165.814394,154.737374 L165.738005,154.712121 L165.660354,154.686869 L165.582702,154.661616 L165.505682,154.636995 L165.42803,154.612374 L165.350379,154.587753 L165.272727,154.563763 L165.194444,154.539773 L165.116793,154.515783 L165.039141,154.492424 L164.96149,154.469697 L164.883838,154.446338 L164.805556,154.423611 L164.727273,154.401515 L164.64899,154.378788 L164.570707,154.356692 L164.492424,154.335227 L164.414141,154.313763 L164.33649,154.292298 L164.258207,154.271465 L164.178662,154.250631 L164.10101,154.230429 L164.022096,154.209596 L163.943813,154.190025 L163.86553,154.169823 L163.786616,154.150253 L163.707071,154.130682 L163.628788,154.111742 L163.549874,154.092803 L163.47096,154.074495 L163.392045,154.056187 L163.313131,154.037879 L163.234848,154.020202 L163.154672,154.001894 L163.076389,153.984848 L162.996843,153.967803 L162.916667,153.950758 L162.838384,153.934343 L162.75947,153.917929 L162.679924,153.901515 L162.599747,153.885101 L162.520202,153.869318 L162.441919,153.854167 L162.362374,153.839015 L162.282197,153.823864 L162.202652,153.808712 L162.123106,153.794192 L162.043561,153.780303 L161.963384,153.765783 L161.88447,153.752525 L161.804924,153.738636 L161.724747,153.725379 L161.644571,153.712121 L161.565025,153.699495 L161.484848,153.686869 L161.404672,153.674242 L161.325758,153.662247 L161.245581,153.650253 L161.165404,153.638889 L161.085227,153.627525 L161.005051,153.616162 L160.924874,153.605429 L160.844697,153.594697 L160.765152,153.583965 L160.684975,153.573864 L160.604167,153.563763 L160.523359,153.553662 L160.443813,153.544192 L160.364268,153.535354 L160.28346,153.526515 L160.202652,153.517677 L160.123106,153.508838 L160.041667,153.500631 L159.962121,153.492424 L159.881944,153.484848 L159.801136,153.477273 L159.72096,153.469697 L159.640152,153.462753 L159.560606,153.455808 L159.479167,153.449495 L159.398359,153.442551 L159.318813,153.436869 L159.238005,153.430556 L159.157197,153.425505 L159.076389,153.419823 L158.995581,153.414773 L158.916035,153.409722 L158.835227,153.405303 L158.753788,153.400253 L158.673611,153.396465 L158.592803,153.392677 L158.511995,153.388889 L158.432449,153.385101 L158.35101,153.381944 L158.270202,153.378788 L158.190025,153.376263 L158.109217,153.373737 L158.027778,153.371212 L157.947601,153.369318 L157.867424,153.367424 L157.785985,153.366162 L157.705177,153.364899 L157.624369,153.363636 L157.544192,153.362374 L157.463384,153.362374 L157.381944,153.361742 L157.301768,153.361742 L157.221591,153.361742 Z" id="Fill-27" fill="#FFFFFF" mask="url(#mask-2)"></path>
                </g>
            </g>
        </g>
    </g>
</svg>