<?xml version="1.0" encoding="UTF-8" standalone="no"?>
<svg width="250px" height="253px" viewBox="0 0 250 253" version="1.1" xmlns="http://www.w3.org/2000/svg" xmlns:xlink="http://www.w3.org/1999/xlink">
    <!-- Generator: sketchtool 3.8.2 (29753) - http://www.bohemiancoding.com/sketch -->
    <title>5EC417E4-E659-4A24-8450-F70A6C9482B6</title>
    <desc>Created with sketchtool.</desc>
    <defs>
        <path d="M124.708484,0 C193.537004,0 249.416968,55.8799639 249.416968,124.708484 C249.416968,193.536913 193.537004,249.416968 124.708484,249.416968 C55.8800542,249.416968 0,193.536913 0,124.708484 C0,55.8799639 55.8800542,0 124.708484,0 L124.708484,0 Z" id="path-1"></path>
    </defs>
    <g id="Home" stroke="none" stroke-width="1" fill="none" fill-rule="evenodd">
        <g transform="translate(-181.000000, -2005.000000)" id="Layer-4">
            <g transform="translate(0.000000, 1904.000000)">
                <g id="icon1" transform="translate(181.000000, 101.000000)">
                    <g transform="translate(0.000000, 3.000000)">
                        <mask id="mask-2" fill="white">
                            <use xlink:href="#path-1"></use>
                        </mask>
                        <g id="Clip-2"></g>
                        <polygon id="Fill-1" fill="#EF7933" mask="url(#mask-2)" points="-9.63149819 267.722834 258.979513 267.722834 258.979513 -12.424278 -9.63149819 -12.424278"></polygon>
                        <g id="Group-5" mask="url(#mask-2)" fill="#F1945C">
                            <g transform="translate(-122.194946, 148.333935)" id="Fill-3">
                                <polygon points="280.40704 0.611913357 0.953971119 350.092058 384.138087 452.023466 315.765343 10.017148"></polygon>
                            </g>
                        </g>
                        <path d="M186.927798,182.419495 C184.390794,192.035921 174.537906,197.77509 164.92148,195.238087 C155.305054,192.700181 149.565884,182.848195 152.103791,173.231769 C154.640794,163.615343 164.49278,157.876354 174.109206,160.413177 C183.726534,162.950181 189.464801,172.803069 186.927798,182.419495" id="Fill-6" fill="#FFBF00" mask="url(#mask-2)"></path>
                        <polygon id="Fill-7" fill="#D5CBB2" mask="url(#mask-2)" points="199.591155 196.037004 134.398917 178.694946 158.212094 148.945848 193.570397 158.351083"></polygon>
                        <polyline id="Stroke-8" stroke="#A5B194" stroke-width="12" stroke-linejoin="round" mask="url(#mask-2)" points="180.552347 136.054152 200.741877 68.9467509 300.621841 169.428159"></polyline>
                        <path d="M198.266245,140.737365 C195.66787,150.504513 185.644404,156.315884 175.877256,153.718412 C166.109206,151.120036 160.297834,141.095668 162.896209,131.32852 C165.494585,121.561372 175.518051,115.75 185.285199,118.348375 C195.053249,120.945848 200.864621,130.970217 198.266245,140.737365" id="Fill-9" fill="#D5CBB2" mask="url(#mask-2)"></path>
                        <path d="M175.877256,153.717509 C185.644404,156.315884 195.668773,150.504513 198.266245,140.736462 C200.864621,130.969314 195.053249,120.945848 185.286101,118.347473 L182.748195,127.887184 L175.877256,153.717509 Z" id="Fill-10" fill="#A3AB8E" mask="url(#mask-2)"></path>
                        <polygon id="Fill-11" fill="#A3AB8E" mask="url(#mask-2)" points="193.570397 158.351083 158.212094 148.944946 162.898014 131.32852 198.203069 140.720217"></polygon>
                        <polygon id="Fill-12" fill="#D5CBB2" mask="url(#mask-2)" points="175.91065 153.683213 158.213899 148.937726 162.882671 131.315884 180.552347 136.055054"></polygon>
                        <polygon id="Fill-13" fill="#A3AB8E" mask="url(#mask-2)" points="175.895307 153.649819 193.570397 158.351083 199.591155 196.036643 166.994585 187.366065"></polygon>
                    </g>
                    <g id="Group-3" transform="translate(2.000000, 0.000000)">
                        <path d="M171.273853,0.966249248 L3.78997009,57.3248721 C0.884162971,58.3033243 -0.675069624,61.441693 0.306009283,64.3337846 L37.0477318,172.617156 C38.0298133,175.509913 41.1811408,177.062679 44.0867251,176.08589 L211.57083,119.727268 C214.47608,118.748815 216.035647,115.609337 215.054234,112.717246 L178.313069,4.43520608 C177.330542,1.54089576 174.179103,-0.011093562 171.273853,0.966249248" id="Fill-14" fill="#FFFFFF"></path>
                        <path d="M195.060588,73.2297119 L28.8922001,129.146811 L7.55855183,66.2729392 C6.90442496,64.3437688 7.94331924,62.2504137 9.88018979,61.5992216 L169.03476,8.04283243 C170.970851,7.39164034 173.072924,8.42777903 173.726828,10.3569495 L195.060588,73.2297119 Z" id="Fill-15" fill="#DF6421"></path>
                        <path d="M33.1055926,99.6922947 C37.9846973,103.224485 41.5261392,102.391358 43.5335245,101.71687 C46.1460217,100.908149 47.3910015,98.6217659 46.7975864,96.4496465 C45.876885,93.0949534 42.1135389,92.8520044 39.217869,93.0361575 L39.2829252,93.0139704 C34.0738608,93.4011357 23.8693925,93.3146059 20.7608417,83.7253309 C17.7150077,74.1138688 24.2610665,67.6718374 31.5796679,65.2090666 C37.0198824,63.3786289 43.3356823,64.1274443 48.8034121,68.9708935 L42.8879752,76.2061146 C40.2867292,74.4954874 37.9934977,74.1171969 35.4040598,74.9891509 C33.0063373,75.7956528 31.3921857,77.4164222 32.0943249,79.9113643 C32.861409,82.5993344 36.3839134,82.3475105 38.7190304,82.208841 C46.478098,81.6818968 55.2800701,82.5294449 58.4589128,93.1726083 C61.1346839,102.548887 54.3535761,109.358115 46.7759752,111.907416 C41.7878123,113.585872 34.2659103,113.745619 27.4951625,107.616426 L33.1055926,99.6922947 Z" id="Fill-16" fill="#FFFFFF"></path>
                        <path d="M80.5384796,99.755528 L69.1400516,103.591682 L53.8212068,58.4431032 L68.911575,53.3644705 C80.719835,49.4628648 89.1336978,55.7584612 91.7626818,63.9288696 C94.3682723,72.033826 91.2324291,81.9292832 79.9625539,85.7221721 L76.2057803,86.9857288 L80.5384796,99.755528 Z M80.6437504,67.7417268 C79.5484889,64.3016133 76.3818999,61.5592847 72.1720722,62.9748233 L68.2860774,64.2827542 L72.9033976,77.892336 L76.790395,76.5844051 C80.8052769,75.2332092 81.7400144,71.1829498 80.6437504,67.7417268 L80.6437504,67.7417268 Z" id="Fill-17" fill="#FFFFFF"></path>
                        <polygon id="Fill-18" fill="#FFFFFF" points="91.4518824 45.5645871 102.980423 41.6851685 118.365549 87.026775 106.837009 90.9061936"></polygon>
                        <polygon id="Fill-19" fill="#FFFFFF" points="141.107375 39.8502933 124.397731 45.4736199 126.805034 52.5679528 142.801733 47.1853565 146.084621 56.8600519 130.087922 62.2426482 133.106797 71.1430129 149.817555 65.5207957 153.143889 75.3241764 125.295596 84.6949082 109.976194 39.5463297 137.823373 30.1755979"></polygon>
                        <polygon id="Fill-20" fill="#FFFFFF" points="185.917071 64.2960665 159.363218 73.2308213 144.04493 28.0822428 155.636968 24.1817464 167.455142 59.0099842 182.415843 53.9768351"></polygon>
                        <path d="M46.9772708,146.726779 C49.483049,146.574797 51.3182135,148.819025 51.6916184,150.01491 C53.2042867,154.472304 50.2845549,157.404332 46.5730088,158.653356 L39.8850294,160.903353 L33.1730995,141.122311 L39.9173347,138.852568 C43.0910531,137.785368 46.3101104,138.431013 47.7880227,141.298699 C48.7315606,143.150214 48.6731882,145.212508 46.9772708,146.726779 L46.9772708,146.726779 Z M42.3324353,146.530423 C44.8547004,145.680656 43.6108345,142.294901 41.2308241,143.095856 L39.3039794,143.74372 L40.4617349,147.159428 L42.3324353,146.530423 Z M41.6873316,150.770382 L43.1043094,154.947108 L45.0322682,154.299244 C48.2048726,153.230934 46.7603796,149.064192 43.6141764,150.122518 L41.6873316,150.770382 Z" id="Fill-21" fill="#DF6421"></path>
                        <polygon id="Fill-22" fill="#DF6421" points="63.297803 135.733059 55.9869995 138.192502 57.0400413 141.29759 64.0400454 138.941317 65.4760722 143.17462 58.4760681 145.529783 59.7973553 149.423624 67.1083816 146.963072 68.56446 151.252952 56.3801217 155.353133 49.6772151 135.601045 61.8617762 131.499756"></polygon>
                        <polygon id="Fill-23" fill="#DF6421" points="80.6089943 133.428926 81.2574399 136.826884 81.9697163 146.836605 74.8572006 149.230596 62.9868922 131.090403 68.2573368 129.316543 75.3505807 140.448932 77.3541784 144.491426 77.5230572 144.433739 76.597343 140.029595 76.1733636 129.01036 81.6983517 127.152189 88.0743063 136.167926 90.1139969 140.22817 90.3133987 140.161609 89.4623208 135.699778 88.3494585 122.556126 93.6475297 120.77339 95.2873027 142.354806 87.8916142 144.844201 82.3519216 136.426406 80.8072821 133.362365"></polygon>
                        <path d="M100.745786,118.416009 L105.284126,131.791516 C105.829974,133.400083 107.362806,133.73289 108.601547,133.28471 C109.838061,132.83653 110.816132,131.627332 110.299247,130.103076 L105.760908,116.727568 L110.832842,115.021379 L115.371181,128.396886 C116.875049,132.826546 113.797133,136.315471 109.999587,137.593449 C106.202042,138.870318 101.677071,137.909616 100.183228,133.50769 L95.6448891,120.132183 L100.745786,118.416009 Z" id="Fill-24" fill="#DF6421"></path>
                        <path d="M121.042434,126.583089 C123.175699,128.128422 124.726354,127.763444 125.604167,127.467246 C126.749335,127.11558 127.292955,126.114941 127.033399,125.164222 C126.629025,123.696544 124.983682,123.590046 123.717091,123.671029 L123.744941,123.661045 C121.466859,123.830776 117.002042,123.793058 115.641877,119.596364 C114.309562,115.391904 117.173595,112.573029 120.374048,111.495845 C122.754616,110.694889 125.517277,111.02215 127.911212,113.142129 L125.322331,116.307122 C124.183847,115.558307 123.180155,115.393013 122.047241,115.774631 C120.998989,116.127407 120.291614,116.837395 120.600186,117.926782 C120.936606,119.104919 122.47835,118.995093 123.498752,118.932969 C126.893038,118.703332 130.745168,119.072747 132.13541,123.729825 C133.306199,127.833333 130.338566,130.811955 127.023373,131.926858 C124.841093,132.661252 121.550407,132.731141 118.588345,130.049827 L121.042434,126.583089 Z" id="Fill-25" fill="#DF6421"></path>
                        <path d="M136.714966,121.30921 C138.848231,122.854543 140.397772,122.490674 141.276699,122.194476 C142.420753,121.841701 142.964373,120.841061 142.704817,119.891452 C142.301558,118.422665 140.656215,118.316167 139.38851,118.39715 L139.416359,118.387165 C137.138277,118.556897 132.673461,118.519179 131.313296,114.322484 C129.98098,110.118024 132.845013,107.29915 136.046581,106.221965 C138.426034,105.42101 141.189809,105.74938 143.58263,107.86825 L140.993749,111.033243 C139.85638,110.284428 138.852687,110.119134 137.719773,110.500752 C136.670407,110.854637 135.964146,111.563515 136.271604,112.654012 C136.608025,113.831039 138.149768,113.721213 139.17017,113.660199 C142.56557,113.429452 146.415472,113.799977 147.806828,118.457055 C148.977617,122.559454 146.009985,125.538075 142.694791,126.652978 C140.512512,127.387372 137.221826,127.457262 134.259763,124.775948 L136.714966,121.30921 Z" id="Fill-26" fill="#DF6421"></path>
                        <polygon id="Fill-27" fill="#DF6421" points="157.991913 99.1520382 159.465704 103.497386 154.847158 105.051594 160.073935 120.459443 155.002001 122.166742 149.775224 106.758894 145.212378 108.293133 143.737473 103.948894"></polygon>
                        <polygon id="Fill-28" fill="#DF6421" points="164.317071 113.969709 169.21968 112.320096 170.780361 116.920596 165.877751 118.570209"></polygon>
                        <path d="M187.508943,100.160443 C189.194389,105.127031 187.535678,111.218506 180.763816,113.498233 L173.962991,115.785725 L167.232347,95.9482175 L174.004208,93.6695999 C180.758247,91.3344051 185.814585,95.1661214 187.508943,100.160443 M182.493822,101.943178 C181.565879,99.2052873 178.88788,96.8989358 175.488025,97.9483867 L173.702321,98.5496578 L177.513234,109.781889 L179.271088,109.190602 C182.698793,108.035763 183.40394,104.624492 182.493822,101.943178" id="Fill-29" fill="#DF6421"></path>
                        <polygon id="Fill-30" fill="#DF6421" points="200.578112 89.537248 193.267086 91.9978001 194.319794 95.1017787 201.318907 92.7466155 202.755936 96.9799188 195.755709 99.335082 197.076885 103.228922 204.387911 100.76837 205.843878 105.058251 193.66032 109.158431 186.956411 89.4052347 199.141083 85.3050542"></polygon>
                    </g>
                </g>
            </g>
        </g>
    </g>
</svg>