<?xml version="1.0" encoding="UTF-8" standalone="no"?>
<svg width="99px" height="105px" viewBox="0 0 99 105" version="1.1" xmlns="http://www.w3.org/2000/svg" xmlns:xlink="http://www.w3.org/1999/xlink">
    <!-- Generator: sketchtool 3.8.2 (29753) - http://www.bohemiancoding.com/sketch -->
    <title>6285849A-E53D-42B7-952D-67DA16A09295</title>
    <desc>Created with sketchtool.</desc>
    <defs></defs>
    <g id="Home" stroke="none" stroke-width="1" fill="none" fill-rule="evenodd">
        <g transform="translate(-671.000000, -1613.000000)" id="Layer-3---360" fill="#FFFFFF">
            <g transform="translate(0.000000, 1280.000000)">
                <g id="picto-360" transform="translate(671.000000, 333.000000)">
                    <path d="M26.536471,62.6568293 C24.7155097,62.6568293 23.5019613,61.7598476 22.3203484,60.5741159 L19.0622903,63.968689 C20.3077742,65.8260366 23.4700258,67.5860671 26.5038968,67.5860671 C30.8164645,67.5860671 35.3519419,65.281189 35.3519419,60.5421037 C35.3519419,57.6603659 33.4032387,56.0283841 32.3813032,55.2914634 C33.2116258,54.6518598 34.744529,53.4027439 34.744529,51.2259146 C34.744529,47.1277134 31.8064645,44.4380488 26.5997032,44.4380488 C23.6935742,44.4380488 20.9151871,46.2307317 19.764871,47.4798476 L22.8638903,51.2259146 C23.9809935,50.0408232 25.3861548,49.3045427 26.5997032,49.3045427 C27.9416323,49.3045427 29.4106645,50.1054878 29.4106645,51.8341463 C29.4106645,53.2753354 28.2296903,54.0429878 26.6967871,54.0429878 L24.3648581,54.0429878 L24.3648581,57.8530793 L26.7593806,57.8530793 C28.3574323,57.8530793 29.4106645,58.461311 29.4106645,60.1906098 C29.4106645,61.7905793 28.3254968,62.6568293 26.536471,62.6568293 L26.536471,62.6568293 Z" id="Fill-1"></path>
                    <path d="M45.6032323,56.828689 C47.5193613,56.7966768 48.158071,58.4292988 48.1900065,59.6784146 C48.2213032,61.215 46.9132258,62.4321037 45.2832387,62.4321037 C43.2393677,62.4321037 42.3132387,60.2546341 42.3132387,58.6540244 C42.8248452,58.0131402 44.1022645,56.8927134 45.6032323,56.828689 L45.6032323,56.828689 Z M46.4329161,49.4959756 C48.3816194,49.4959756 50.0122452,50.4896341 51.0961355,51.129878 L53.2683871,46.9670122 C51.385471,45.3670427 47.8706516,44.3740244 45.7309742,44.4380488 C37.3306645,44.6941463 36.2442194,53.1786585 36.3400258,57.437561 C36.5322774,63.8406402 40.3971097,67.6193598 45.6351677,67.4592988 C50.8412903,67.2985976 53.9070968,63.6479268 53.9070968,59.3582927 C53.9070968,55.0033537 50.5225742,52.0582317 46.4329161,52.2182927 C44.7403355,52.2816768 43.080329,53.0185976 42.248729,53.8509146 C42.5693613,51.481372 44.070329,49.5606402 46.4329161,49.4959756 L46.4329161,49.4959756 Z" id="Fill-2"></path>
                    <path d="M61.1890258,55.8683232 C61.1890258,51.9621951 62.6580581,49.4959756 63.839671,49.528628 C65.403871,49.528628 66.6174194,52.2816768 66.6174194,56.0924085 C66.6174194,59.9978963 65.4996774,62.5921646 64.0300065,62.5921646 C62.7525871,62.5921646 61.1890258,59.9978963 61.1890258,55.8683232 L61.1890258,55.8683232 Z M73.037729,56.0924085 C73.037729,49.0164329 70.1309613,44.3740244 63.8709677,44.3740244 C58.5690387,44.3740244 54.8638839,49.0810976 54.8638839,55.8683232 C54.8638839,63.7439634 58.6967806,67.5540549 64.0300065,67.5540549 C69.8122452,67.5540549 73.037729,63.1997561 73.037729,56.0924085 L73.037729,56.0924085 Z" id="Fill-3"></path>
                    <path d="M75.5286968,47.1245122 C75.5286968,45.9272561 76.4963419,44.9566463 77.690729,44.9566463 C78.8844774,44.9566463 79.8534,45.9272561 79.8534,47.1245122 C79.8534,48.321128 78.8844774,49.2917378 77.690729,49.2917378 C76.4963419,49.2917378 75.5286968,48.321128 75.5286968,47.1245122 L75.5286968,47.1245122 Z M81.7938,47.1245122 C81.7938,44.8529268 79.9562323,43.0115854 77.690729,43.0115854 C75.4245871,43.0115854 73.5876581,44.8529268 73.5876581,47.1245122 C73.5876581,49.3954573 75.4245871,51.237439 77.690729,51.237439 C79.9562323,51.237439 81.7938,49.3954573 81.7938,47.1245122 L81.7938,47.1245122 Z" id="Fill-4"></path>
                    <path d="M56.731471,6.34993902 L56.731471,17.3070732 C74.5361419,20.7496646 87.986729,36.4458841 87.986729,55.2985061 C87.986729,76.6743293 70.7000516,94.0006098 49.3773677,94.0006098 C28.0540452,94.0006098 10.7686452,76.6743293 10.7686452,55.2985061 C10.7686452,37.2225 23.1359806,22.0564024 39.8484581,17.8013415 L41.5282645,25.4535366 L51.4314581,9.92698171 L35.9401935,0 L37.5299419,7.24051829 C15.9817935,12.5603049 0,32.0570122 0,55.2985061 C0,82.635 22.1063806,104.795122 49.3773677,104.795122 C76.6483548,104.795122 98.7560129,82.635 98.7560129,55.2985061 C98.7560129,30.4679268 80.5138258,9.90969512 56.731471,6.34993902 L56.731471,6.34993902 Z" id="Fill-5"></path>
                </g>
            </g>
        </g>
    </g>
</svg>