<?xml version="1.0" encoding="UTF-8" standalone="no"?>
<svg width="18px" height="18px" viewBox="0 0 18 18" version="1.1" xmlns="http://www.w3.org/2000/svg" xmlns:xlink="http://www.w3.org/1999/xlink">
    <!-- Generator: sketchtool 3.8.2 (29753) - http://www.bohemiancoding.com/sketch -->
    <title>DBFAF56A-8373-446E-A256-EAE872548723</title>
    <desc>Created with sketchtool.</desc>
    <defs></defs>
    <g id="Assets" stroke="none" stroke-width="1" fill="none" fill-rule="evenodd">
        <g transform="translate(-872.000000, -1486.000000)" id="icon-loupe-blanc" fill="#FFFFFF">
            <path d="M878.5,1486 C882.089851,1486 885,1488.91015 885,1492.5 C885,1494.11 884.41,1495.59 883.44,1496.73 L883.71,1497 L884.5,1497 L889.5,1502 L888,1503.5 L883,1498.5 L883,1497.71 L882.73,1497.44 C881.59,1498.41 880.11,1499 878.5,1499 C874.910149,1499 872,1496.08985 872,1492.5 C872,1488.91015 874.910149,1486 878.5,1486 L878.5,1486 Z M878.5,1487 C876,1487 874,1490 874,1492.5 C874,1495 876,1497 878.5,1497 C881,1497 883,1495 883,1492.5 C883,1490 881,1488 878.5,1488 L878.5,1487 Z"></path>
        </g>
    </g>
</svg>