<?xml version="1.0" encoding="UTF-8" standalone="no"?>
<svg width="18px" height="18px" viewBox="0 0 18 18" version="1.1" xmlns="http://www.w3.org/2000/svg" xmlns:xlink="http://www.w3.org/1999/xlink">
    <!-- Generator: sketchtool 3.8.2 (29753) - http://www.bohemiancoding.com/sketch -->
    <title>7E1C4C5D-9A42-41A2-9BDB-22B9CED4973C</title>
    <desc>Created with sketchtool.</desc>
    <defs></defs>
    <g id="Assets" stroke="none" stroke-width="1" fill="none" fill-rule="evenodd">
        <g transform="translate(-872.000000, -1448.000000)" id="icon-loupe-noir" fill="#4A4A4A">
            <path d="M878.5,1448 C882.089851,1448 885,1450.91015 885,1454.5 C885,1456.11 884.41,1457.59 883.44,1458.73 L883.71,1459 L884.5,1459 L889.5,1464 L888,1465.5 L883,1460.5 L883,1459.71 L882.73,1459.44 C881.59,1460.41 880.11,1461 878.5,1461 C874.910149,1461 872,1458.08985 872,1454.5 C872,1450.91015 874.910149,1448 878.5,1448 L878.5,1448 Z M878.5,1450 C876,1450 874,1452 874,1454.5 C874,1457 876,1459 878.5,1459 C881,1459 883,1457 883,1454.5 C883,1452 881,1450 878.5,1450 L878.5,1450 Z"></path>
        </g>
    </g>
</svg>