<?xml version="1.0" encoding="UTF-8" standalone="no"?>
<svg width="20px" height="16px" viewBox="0 0 20 16" version="1.1" xmlns="http://www.w3.org/2000/svg" xmlns:xlink="http://www.w3.org/1999/xlink">
    <!-- Generator: sketchtool 3.8.2 (29753) - http://www.bohemiancoding.com/sketch -->
    <title>36D73A0A-A7E8-4503-8FC0-D0315FC9E78B</title>
    <desc>Created with sketchtool.</desc>
    <defs></defs>
    <g id="Assets" stroke="none" stroke-width="1" fill="none" fill-rule="evenodd">
        <g transform="translate(-908.000000, -1487.000000)" id="icon-mail-blanc" fill="#FFFFFF">
            <path d="M926,1487 L910,1487 C908.895431,1487 908,1487.89543 908,1489 L908,1501 C908,1502.10457 908.895431,1503 910,1503 L926,1503 C927.104569,1503 928,1502.10457 928,1501 L928,1489 C928,1487.89543 927.104569,1487 926,1487 L926,1487 Z M926,1501 L910,1501 L910,1491 L918,1496 L926,1491 L926,1501 L926,1501 Z M926,1489 L918,1494 L910,1489 L910,1489 L926,1489 L926,1489 L926,1489 Z"></path>
        </g>
    </g>
</svg>