<?xml version="1.0" encoding="UTF-8" standalone="no"?>
<svg width="20px" height="16px" viewBox="0 0 20 16" version="1.1" xmlns="http://www.w3.org/2000/svg" xmlns:xlink="http://www.w3.org/1999/xlink">
    <!-- Generator: sketchtool 3.8.2 (29753) - http://www.bohemiancoding.com/sketch -->
    <title>EC2181B4-BAF2-4152-A89D-9DCCEC12C8EE</title>
    <desc>Created with sketchtool.</desc>
    <defs></defs>
    <g id="Assets" stroke="none" stroke-width="1" fill="none" fill-rule="evenodd">
        <g transform="translate(-908.000000, -1449.000000)" id="icon-mail-noir" fill="#4A4A4A">
            <path d="M926,1449 L910,1449 C908.895431,1449 908,1449.89543 908,1451 L908,1463 C908,1464.10457 908.895431,1465 910,1465 L926,1465 C927.104569,1465 928,1464.10457 928,1463 L928,1451 C928,1449.89543 927.104569,1449 926,1449 L926,1449 Z M926,1463 L910,1463 L910,1453 L918,1458 L926,1453 L926,1463 L926,1463 Z M926,1451 L918,1456 L910,1451 L910,1451 L926,1451 L926,1451 L926,1451 Z"></path>
        </g>
    </g>
</svg>