<?xml version="1.0" encoding="UTF-8" standalone="no"?>
<svg width="262px" height="45px" viewBox="0 0 262 45" version="1.1" xmlns="http://www.w3.org/2000/svg" xmlns:xlink="http://www.w3.org/1999/xlink">
    <!-- Generator: sketchtool 3.8.2 (29753) - http://www.bohemiancoding.com/sketch -->
    <title>439CBA54-D0BE-4BD6-82B0-1E9B3285AAC9</title>
    <desc>Created with sketchtool.</desc>
    <defs></defs>
    <g id="Assets" stroke="none" stroke-width="1" fill="none" fill-rule="evenodd">
        <g transform="translate(-698.000000, -1245.000000)" id="logo-spiel-blanc">
            <g transform="translate(698.000000, 1245.000000)">
                <path d="M125.789699,45 C125.789699,45 104.016318,42.81 94.1314924,44.6025 C90.7522874,27.99 80.5217348,13.00875 77.8897467,10.28625 C91.5218093,10.2225 100.614808,18.68625 100.614808,18.68625 C100.614808,18.68625 104.14643,7.4325 109.797026,0 C112.555409,7.965 119.295232,18.71625 119.295232,18.71625 C119.295232,18.71625 124.960697,10.42125 141.763785,8.0325 C131.380815,17.985 128.202355,24.61125 126.339889,42.67875 C124.49601,34.92 124.142848,23.09625 131.52208,14.94 C127.157738,16.86 122.793397,20.67 118.298942,26.61375 C113.358388,20.04375 109.343491,10.02 109.343491,10.02 C109.343491,10.02 106.198489,15.96 102.540471,26.98125 C94.8378169,19.41375 86.9121127,16.3875 86.9121127,16.3875 C86.9121127,16.3875 94.8266644,26.1375 97.3917375,40.18875 C114.32122,39.765 125.789699,45 125.789699,45" id="Fill-1" fill="#FFBF00"></path>
                <path d="M0.226767335,42.78825 C2.22678088,43.437 4.84018147,43.76325 6.93684995,43.76325 C11.9368838,43.76325 16.8402627,42.1695 16.8402627,36.27825 C16.8402627,28.08075 6.19335049,30.552 6.19335049,26.87325 C6.19335049,24.8895 8.71009615,24.75825 10.226835,24.75825 C11.9368838,24.75825 13.6766725,25.0845 15.2268689,25.80075 L15.6134886,21.117 C14.0967497,20.59575 11.9703413,20.2695 9.80675785,20.2695 C5.28999865,20.2695 0,21.76575 0,27.23325 C0,35.49825 10.6469122,32.82825 10.6469122,37.062 C10.6469122,38.88075 8.84020856,39.2745 6.93684995,39.2745 C4.45356176,39.2745 2.28997833,38.622 0.743499458,37.77825 L0.226767335,42.78825 Z M20.0633329,43.37325 L26.067091,43.37325 L26.067091,35.4345 L28.3868093,35.4345 C34.0002302,35.4345 37.3236728,32.70075 37.3236728,28.11075 C37.3236728,23.00325 34.0968852,20.6595 27.2269502,20.6595 L20.0633329,20.6595 L20.0633329,43.37325 Z M26.067091,24.957 L27.6135699,24.957 C29.6767809,24.957 31.3236322,25.70325 31.3236322,28.01325 C31.3236322,30.39075 29.6767809,31.137 27.6135699,31.137 L26.067091,31.137 L26.067091,24.957 Z M40.3868906,43.37325 L46.3869312,43.37325 L46.3869312,20.6595 L40.3868906,20.6595 L40.3868906,43.37325 Z M50.7103806,43.37325 L66.9335387,43.37325 L66.9335387,39.07575 L56.7104212,39.07575 L56.7104212,33.93825 L66.0301869,33.93825 L66.0301869,29.64075 L56.7104212,29.64075 L56.7104212,24.957 L66.5803765,24.957 L66.5803765,20.6595 L50.7103806,20.6595 L50.7103806,43.37325 Z M70.5804036,43.37325 L85.8704699,43.37325 L85.8704699,38.88075 L76.5804442,38.88075 L76.5804442,20.6595 L70.5804036,20.6595 L70.5804036,43.37325 Z" id="Fill-2" fill="#FFFFFF"></path>
                <path d="M135.357794,42.78825 C137.357807,43.437 139.971208,43.76325 142.067876,43.76325 C147.06791,43.76325 151.971289,42.1695 151.971289,36.27825 C151.971289,28.08075 141.324377,30.552 141.324377,26.87325 C141.324377,24.8895 143.841123,24.75825 145.357862,24.75825 C147.06791,24.75825 148.807699,25.0845 150.357895,25.80075 L150.744515,21.117 C149.227776,20.59575 147.09765,20.2695 144.937784,20.2695 C140.421025,20.2695 135.131027,21.76575 135.131027,27.23325 C135.131027,35.49825 145.777939,32.82825 145.777939,37.062 C145.777939,38.88075 143.971235,39.2745 142.067876,39.2745 C139.584588,39.2745 137.421005,38.622 135.874526,37.77825 L135.357794,42.78825 Z M158.261295,43.37325 L164.261335,43.37325 L164.261335,25.14825 L169.807841,25.14825 L169.807841,20.6595 L152.711071,20.6595 L152.711071,25.14825 L158.261295,25.14825 L158.261295,43.37325 Z M166.971391,43.37325 L173.068086,43.37325 L174.841333,38.5245 L183.291204,38.5245 L184.967795,43.37325 L191.551483,43.37325 L182.871127,20.6595 L175.517917,20.6595 L166.971391,43.37325 Z M181.874837,34.227 L176.227959,34.227 L179.131324,25.347 L179.194522,25.347 L181.874837,34.227 Z M194.454848,43.37325 L200.454889,43.37325 L200.454889,25.14825 L206.001395,25.14825 L206.001395,20.6595 L188.904625,20.6595 L188.904625,25.14825 L194.454848,25.14825 L194.454848,43.37325 Z M207.677986,43.37325 L213.678027,43.37325 L213.678027,20.6595 L207.677986,20.6595 L207.677986,43.37325 Z M216.194772,32.0145 C216.194772,39.24075 220.131602,43.76325 227.484812,43.76325 C234.841739,43.76325 238.774851,39.24075 238.774851,32.0145 C238.774851,24.72825 234.904936,20.2695 227.484812,20.2695 C220.064687,20.2695 216.194772,24.72825 216.194772,32.0145 L216.194772,32.0145 Z M222.388123,32.0145 C222.388123,28.08075 223.841664,24.75825 227.484812,24.75825 C231.131677,24.75825 232.581501,28.08075 232.581501,32.0145 C232.581501,35.757 231.131677,39.2745 227.484812,39.2745 C223.841664,39.2745 222.388123,35.757 222.388123,32.0145 L222.388123,32.0145 Z M241.098287,43.37325 L246.615053,43.37325 L246.421743,27.852 L246.48494,27.852 L254.354882,43.37325 L261.808464,43.37325 L261.808464,20.6595 L256.325156,20.6595 L256.421811,36.08325 L256.354896,36.08325 L248.741461,20.6595 L241.098287,20.6595 L241.098287,43.37325 Z" id="Fill-3" fill="#FFFFFF"></path>
            </g>
        </g>
    </g>
</svg>