<?xml version="1.0" encoding="utf-8"?>
<!-- Generator: Adobe Illustrator 19.2.1, SVG Export Plug-In . SVG Version: 6.00 Build 0)  -->
<svg version="1.1" id="Calque_1" xmlns="http://www.w3.org/2000/svg" xmlns:xlink="http://www.w3.org/1999/xlink" x="0px" y="0px"
	 viewBox="0 0 262 45" style="enable-background:new 0 0 262 45;" xml:space="preserve">
<style type="text/css">
	.st0{fill:#FFBF00;}
	.st1{fill:#B4B4B2;}
</style>
<title>39976E1C-621A-4D1B-AF9F-71D04B926168</title>
<desc>Created with sketchtool.</desc>
<g id="Assets">
	<g id="logo-spiel-noir" transform="translate(-240.000000, -1245.000000)">
		<g transform="translate(240.000000, 1245.000000)">
			<path id="Fill-1" class="st0" d="M94.1,44.6C90.8,28,80.5,13,77.9,10.3c13.6-0.1,22.7,8.4,22.7,8.4s3.5-11.3,9.2-18.7
				c2.8,8,9.5,18.7,9.5,18.7S125,10.4,141.8,8c-10.4,10-13.6,16.6-15.4,34.6c-1.8-7.8-2.2-19.6,5.2-27.7c-4.4,1.9-8.7,5.7-13.2,11.7
				c-4.9-6.6-9-16.6-9-16.6s-3.1,5.9-6.8,17c-7.7-7.6-15.6-10.6-15.6-10.6s7.9,9.8,10.5,23.8c16.9-0.4,28.4,4.8,28.4,4.8
				S104,42.8,94.1,44.6z"/>
			<path id="Fill-2" class="st1" d="M0.2,42.8c2,0.6,4.6,1,6.7,1c5,0,9.9-1.6,9.9-7.5c0-8.2-10.6-5.7-10.6-9.4c0-2,2.5-2.1,4-2.1
				c1.7,0,3.4,0.3,5,1l0.4-4.7c-1.5-0.5-3.6-0.8-5.8-0.8c-4.5,0-9.8,1.5-9.8,7c0,8.3,10.6,5.6,10.6,9.8c0,1.8-1.8,2.2-3.7,2.2
				c-2.5,0-4.6-0.7-6.2-1.5L0.2,42.8z M20.1,43.4h6v-7.9h2.3c5.6,0,8.9-2.7,8.9-7.3c0-5.1-3.2-7.5-10.1-7.5h-7.2V43.4z M26.1,25h1.5
				c2.1,0,3.7,0.7,3.7,3.1c0,2.4-1.6,3.1-3.7,3.1h-1.5V25z M40.4,43.4h6V20.7h-6V43.4z M50.7,43.4h16.2v-4.3H56.7v-5.1H66v-4.3h-9.3
				V25h9.9v-4.3H50.7V43.4z M70.6,43.4h15.3v-4.5h-9.3V20.7h-6V43.4z"/>
			<path id="Fill-3" class="st1" d="M135.4,42.8c2,0.6,4.6,1,6.7,1c5,0,9.9-1.6,9.9-7.5c0-8.2-10.6-5.7-10.6-9.4c0-2,2.5-2.1,4-2.1
				c1.7,0,3.4,0.3,5,1l0.4-4.7c-1.5-0.5-3.6-0.8-5.8-0.8c-4.5,0-9.8,1.5-9.8,7c0,8.3,10.6,5.6,10.6,9.8c0,1.8-1.8,2.2-3.7,2.2
				c-2.5,0-4.6-0.7-6.2-1.5L135.4,42.8z M158.3,43.4h6V25.1h5.5v-4.5h-17.1v4.5h5.6V43.4z M167,43.4h6.1l1.8-4.8h8.4l1.7,4.8h6.6
				l-8.7-22.7h-7.4L167,43.4z M181.9,34.2h-5.6l2.9-8.9h0.1L181.9,34.2z M194.5,43.4h6V25.1h5.5v-4.5h-17.1v4.5h5.6V43.4z
				 M207.7,43.4h6V20.7h-6V43.4z M216.2,32c0,7.2,3.9,11.7,11.3,11.7c7.4,0,11.3-4.5,11.3-11.7c0-7.3-3.9-11.7-11.3-11.7
				C220.1,20.3,216.2,24.7,216.2,32L216.2,32z M222.4,32c0-3.9,1.5-7.3,5.1-7.3c3.6,0,5.1,3.3,5.1,7.3c0,3.7-1.4,7.3-5.1,7.3
				C223.8,39.3,222.4,35.8,222.4,32L222.4,32z M241.1,43.4h5.5l-0.2-15.5h0.1l7.9,15.5h7.5V20.7h-5.5l0.1,15.4h-0.1l-7.6-15.4h-7.6
				V43.4z"/>
		</g>
	</g>
</g>
</svg>
