<?xml version="1.0" encoding="UTF-8" standalone="no"?>
<svg width="563px" height="311px" viewBox="0 0 563 311" version="1.1" xmlns="http://www.w3.org/2000/svg" xmlns:xlink="http://www.w3.org/1999/xlink">
    <!-- Generator: sketchtool 3.8.2 (29753) - http://www.bohemiancoding.com/sketch -->
    <title>FC77370A-8EDE-463A-A04B-68B2D9EA3493</title>
    <desc>Created with sketchtool.</desc>
    <defs>
        <rect id="path-1" x="0" y="0" width="617" height="311"></rect>
    </defs>
    <g id="Article" stroke="none" stroke-width="1" fill="none" fill-rule="evenodd">
        <g id="Article-2" transform="translate(-877.000000, -100.000000)">
            <g id="hero" transform="translate(0.000000, 100.000000)">
                <g id="icon-lignes" transform="translate(823.000000, 0.000000)">
                    <mask id="mask-2" fill="white">
                        <use xlink:href="#path-1"></use>
                    </mask>
                    <g id="Mask"></g>
                    <g id="icon" mask="url(#mask-2)" fill="#FEFEFE">
                        <g transform="translate(362.366299, 62.679993) rotate(-90.000000) translate(-362.366299, -62.679993) translate(37.866299, -245.820007)" id="Fill-3">
                            <path d="M246.221664,295.818521 C246.89588,298.283167 247.450084,300.788793 248.069661,303.270026 C249.276615,308.240299 250.48357,313.206668 251.687597,318.162304 C252.715997,323.153066 253.741469,328.133096 254.764014,333.098489 C255.256748,335.583625 255.823636,338.050223 256.253925,340.538286 C256.666651,343.027325 257.079377,345.512461 257.490151,347.992719 C260.365571,363.896809 262.109167,379.736503 263.330757,395.23177 C255.474332,388.892575 247.66474,382.448004 239.954672,375.88342 C235.884005,372.373787 231.764553,368.911964 227.773895,365.323299 C226.678171,364.354418 225.589278,363.383585 224.495505,362.413728 C225.016535,359.942252 225.538541,357.46297 226.063473,354.969053 C227.157245,349.3392 228.600322,344.012793 229.938022,338.513686 C233.920874,322.939386 238.875535,307.139696 245.047883,291.584911 L246.221664,295.818521 Z M204.127537,343.615679 L201.226748,340.843684 L199.811967,339.485494 L198.399137,338.078519 C196.516015,336.204178 194.63582,334.331788 192.759527,332.463302 C177.797974,317.439302 163.315494,302.327489 149.336482,287.684993 C142.529921,280.532056 135.847276,273.486446 129.310012,266.571582 C130.525748,264.870917 131.746363,263.155617 132.994297,261.434463 C136.246342,257.016443 139.302269,252.313516 142.518213,247.614491 C145.769282,242.940835 148.807646,238.008616 151.96895,233.079324 C153.520331,230.596139 155.174161,228.158813 156.664072,225.598547 C158.181303,223.057795 159.705363,220.503384 161.235278,217.939215 C162.759339,215.37407 164.289254,212.797218 165.824047,210.21451 C167.283711,207.587896 168.749229,204.954452 170.216699,202.316129 C171.682217,199.678782 173.151638,197.035581 174.622034,194.391404 L175.173311,193.400082 L175.50798,192.785384 L175.761665,192.282892 L176.773477,190.27 L178.799053,186.244217 L182.84923,178.1946 L184.871879,174.174671 C185.514873,172.803797 186.115911,171.391943 186.737438,170.004482 C187.969762,167.222729 189.199158,164.445856 190.425626,161.676788 C191.037397,160.294205 191.648192,158.913574 192.257036,157.534894 C192.543895,156.887998 192.832706,156.243053 193.111759,155.59518 C193.187864,155.749343 193.262994,155.901554 193.338124,156.055716 C194.370426,158.162276 195.407607,160.278594 196.449666,162.404668 C198.53281,166.656817 200.636443,170.94897 202.757639,175.277224 C204.808583,179.637677 206.720977,184.107409 208.730942,188.566409 C210.704805,193.042971 212.765507,197.518558 214.704245,202.07708 C216.53663,206.680485 218.379748,211.310234 220.232624,215.964376 C221.158574,218.290471 222.086475,220.621445 223.017303,222.958273 L224.413546,226.465954 C224.853591,227.646564 225.248754,228.844737 225.669286,230.035105 C227.327995,234.803405 228.992558,239.589268 230.661999,244.390742 C231.496232,246.790015 232.332417,249.192216 233.169577,251.597344 L233.775493,253.348745 L234.342382,255.188936 L235.477133,258.873221 C236.924113,263.573222 238.37402,268.282979 239.825878,272.996639 C230.043399,293.330458 222.565549,314.275071 216.696647,335.012835 C215.199906,340.538286 213.582177,346.073495 212.383028,351.415513 C211.570261,350.668119 210.755542,349.919748 209.943751,349.173329 C208.002086,347.318503 206.063348,345.465627 204.127537,343.615679 L204.127537,343.615679 Z M614.516491,95.2913579 C603.735859,95.2923336 590.643768,95.3225807 575.622696,95.5811441 C560.603576,95.8572703 543.651571,96.3178059 525.174531,97.4662179 C515.935523,98.0321303 506.318915,98.8039177 496.375443,99.775726 C486.437826,100.805101 476.177248,102.067671 465.663962,103.69223 C444.668611,107.045749 422.608759,111.835515 400.558665,119.591442 C378.562234,127.349321 356.541411,138.259722 336.926692,153.429102 C317.522726,168.419927 299.281807,185.690988 283.230385,204.906642 L281.702421,206.687315 C281.20676,207.292256 280.736467,207.917686 280.252514,208.532384 L277.368312,212.235208 C275.462749,214.717417 273.482055,217.144986 271.640889,219.673053 L266.236425,227.340191 L263.537608,231.172784 L261.022225,235.122462 C259.346929,237.755907 257.673585,240.387399 256.002192,243.014989 C254.359094,245.661118 252.882843,248.398963 251.317803,251.083144 L249.005367,255.125515 L247.850126,257.144261 L246.782698,259.206915 C246.461689,259.83137 246.142631,260.452898 245.822598,261.077353 C245.253758,259.409862 244.682967,257.738469 244.114128,256.073906 L242.869121,252.425723 L242.246617,250.602119 L241.539226,248.734608 C240.617179,246.320698 239.696108,243.908741 238.776013,241.500686 C236.936797,236.688479 235.10246,231.889932 233.274954,227.109923 C232.813442,225.91858 232.375348,224.718455 231.894322,223.536869 L230.373189,220.028212 C229.360401,217.69236 228.349564,215.361386 227.341655,213.037242 C225.326811,208.390906 223.321725,203.767012 221.328347,199.172388 C219.229593,194.62655 217.012777,190.168526 214.884751,185.711478 C212.718673,181.271993 210.653092,176.824702 208.451888,172.490593 C206.182384,168.193562 203.930443,163.93068 201.700943,159.709754 C200.586681,157.600267 199.477298,155.500536 198.372793,153.410563 C197.820541,152.366553 197.269264,151.326445 196.718963,150.287312 C196.415517,149.757501 196.114022,149.229641 195.811551,148.700806 C197.349272,144.717953 198.880163,140.752664 200.394466,136.830305 C202.250269,131.287291 204.08363,125.810624 205.886744,120.423724 C207.563016,115.000721 209.022679,109.609918 210.550643,104.373277 L211.113628,102.411122 L211.594654,100.438234 C211.912735,99.1268781 212.228866,97.8233281 212.544021,96.5275838 C213.172378,93.9370709 213.793906,91.3787565 214.405677,88.854592 C215.062331,86.342136 215.506279,83.81602 216.019503,81.3464953 C216.518092,78.8750192 217.00985,76.4406201 217.492827,74.0472008 C218.011905,71.662563 218.362186,69.2857308 218.748567,66.961587 C219.128119,64.6393947 219.501816,62.3591579 219.866732,60.1257553 C220.264822,57.8991826 220.517531,55.696027 220.795609,53.5494627 C221.07076,51.4019226 221.33908,49.3051196 221.601546,47.2610049 C221.891333,45.2217687 222.052325,43.2176582 222.240637,41.2759932 C222.425047,39.3333524 222.603602,37.4473029 222.777278,35.6197961 C223.121704,31.9647824 223.260255,28.5273524 223.487596,25.3621456 C223.676884,22.1930361 223.719815,19.2737086 223.828119,16.6441673 C223.899346,14.0126745 223.878856,11.6602351 223.904224,9.61709614 C223.872026,7.57298146 223.844706,5.83524004 223.822265,4.42533755 C223.726645,1.60748398 223.62322,0.108791784 223.62322,0.108791784 C223.62322,0.108791784 223.648588,1.61236254 223.597851,4.42631326 C223.546139,5.83231291 223.483693,7.56712719 223.409539,9.60636332 C223.276842,11.6426723 223.176344,13.9853546 222.968518,16.601236 C222.723614,19.2171173 222.529448,22.1159549 222.17624,25.2587203 C221.786931,28.3985585 221.470801,31.8028144 220.940014,35.4178239 C220.672669,37.2238651 220.397519,39.088449 220.113587,41.0076726 C219.825752,42.9249449 219.563286,44.9017355 219.169099,46.9136517 C218.804183,48.9265437 218.428534,50.9930997 218.04508,53.1074656 C217.658698,55.2218315 217.294758,57.38791 216.785437,59.57643 C216.308314,61.7688527 215.820458,64.0071339 215.323821,66.2883464 C214.822306,68.5685832 214.35494,70.8976055 213.71585,73.2334578 C213.115787,75.5751643 212.504016,77.9558994 211.883464,80.3737114 C211.249252,82.7866449 210.682364,85.2551939 209.903746,87.7052043 C209.169036,90.164972 208.424568,92.6579137 207.670344,95.1820783 C207.293719,96.442697 206.915143,97.7120971 206.53364,98.9883271 L205.958947,100.906575 L205.303269,102.812139 C203.525523,107.899496 201.814126,113.126381 199.889048,118.372779 C197.84103,123.571368 195.759839,128.856794 193.653279,134.207594 C192.761479,136.200972 191.862849,138.211912 190.963243,140.221877 C190.002168,138.540727 189.042068,136.862504 188.089774,135.196965 C186.956973,133.215296 185.830027,131.245335 184.710887,129.288059 C183.586867,127.333709 182.37601,125.446684 181.225647,123.542096 C178.900527,119.749507 176.60663,116.008631 174.346884,112.32337 C173.206277,110.489034 172.123238,108.63811 170.959215,106.856461 C169.797143,105.074813 168.643852,103.3078 167.500319,101.555423 C165.215204,98.0506688 162.967165,94.6064087 160.762058,91.2245942 C160.210782,90.3806041 159.661456,89.5385654 159.116034,88.7023811 C158.54817,87.8788809 157.984209,87.0592836 157.422199,86.2435892 C156.29818,84.6141517 155.18587,83.0013013 154.084292,81.4040623 C151.882112,78.2115357 149.725791,75.0843817 147.618255,72.0294303 C145.481447,68.9939932 143.322199,66.0805199 141.256618,63.2129051 C139.178354,60.3540717 137.153753,57.5693923 135.185744,54.8617941 C133.162119,52.1961514 131.196062,49.6066143 129.291474,47.0970854 C127.374201,44.5982894 125.574014,42.1394975 123.736751,39.8397465 C121.911195,37.5321898 120.151012,35.3085443 118.460105,33.171737 C115.111465,28.8717784 111.884788,25.0421124 109.024979,21.5432125 C103.262429,14.5766355 98.5887735,9.22778743 95.3796598,5.60399652 C92.1549347,1.99093843 90.3888976,0.108791784 90.3888976,0.108791784 C90.3888976,0.108791784 92.0983434,2.04557825 95.209886,5.75035318 C98.306793,9.46878806 102.812627,14.95326 108.35369,22.0827807 C111.104219,25.6646161 114.206981,29.5811203 117.419021,33.9747472 C119.041629,36.1583886 120.730585,38.429844 122.482962,40.7871619 C124.245096,43.1356985 125.968202,45.6452273 127.80449,48.1957361 C129.627118,50.7550262 131.509265,53.3962761 133.446051,56.1155828 C135.326247,58.873918 137.261082,61.7122615 139.245678,64.624759 C141.218566,67.5450623 143.281219,70.5131753 145.318504,73.6013009 C147.325541,76.7089406 149.379413,79.888783 151.477192,83.1359494 C152.525106,84.7595326 153.584728,86.3997029 154.654107,88.0564603 C155.188797,88.884839 155.726414,89.7171206 156.265982,90.5542807 C156.784084,91.4031493 157.305114,92.2578722 157.829071,93.1164979 C159.921971,96.5480738 162.054876,100.044047 164.223881,103.601489 C165.307896,105.378259 166.401668,107.171616 167.504222,108.978633 C168.607751,110.784674 169.630296,112.659991 170.709433,114.51872 C172.844289,118.250815 175.012319,122.038525 177.20962,125.8799 C178.295586,127.806929 179.441071,129.716396 180.499718,131.693186 C181.55251,133.671928 182.612132,135.662379 183.678584,137.66649 C185.190936,140.50776 186.720851,143.382205 188.258572,146.27031 C187.68583,147.550443 187.116014,148.824721 186.541321,150.109733 C185.968578,151.461093 185.293386,152.754886 184.631854,154.058436 C183.971298,155.361986 183.309766,156.668463 182.648233,157.976891 C181.326145,160.589845 180.000154,163.210605 178.671235,165.83722 C177.999946,167.148575 177.361831,168.464809 176.664197,169.773238 L174.434698,173.681937 L169.970819,181.510066 L167.738393,185.425595 L166.622179,187.381896 L166.343126,187.871703 C166.34898,187.859994 166.23287,188.068796 166.337271,187.877557 L166.263117,187.995618 L166.114809,188.232716 L165.522553,189.179155 C163.941901,191.702344 162.362225,194.222606 160.786451,196.738965 C159.211654,199.252397 157.640759,201.761925 156.073767,204.263649 C154.436524,206.719513 152.803183,209.168548 151.176673,211.60685 C149.54626,214.041249 147.922676,216.465891 146.307875,218.877849 C144.719417,221.307369 142.970943,223.612975 141.32687,225.963463 C137.979205,230.627362 134.762286,235.293212 131.342418,239.697572 C127.958652,244.126324 124.742709,248.55898 121.340404,252.7038 C120.549102,253.68439 119.767558,254.664004 118.991868,255.638739 C115.690061,252.134961 112.431186,248.671186 109.221097,245.251319 C96.5329502,231.69479 84.5365827,218.877849 73.4632377,207.046377 C29.2596235,159.633649 -1.13686838e-12,127.825468 -1.13686838e-12,127.825468 C-1.13686838e-12,127.825468 28.3648965,160.43178 71.2434951,209.060244 C81.9870496,221.19809 93.626307,234.346772 105.936854,248.253582 C109.215243,251.945673 112.547296,255.691428 115.924232,259.479138 C114.442127,261.325183 112.960022,263.141957 111.44767,264.891407 C108.146839,268.777664 105.018709,272.624893 101.798863,276.176481 C98.6141419,279.757341 95.5894376,283.261119 92.5335106,286.481942 C89.5136848,289.735938 86.6411914,292.870898 83.7979694,295.740464 C82.3919697,297.189395 81.0210957,298.601249 79.6892501,299.973099 C78.3544773,301.342021 77.014826,302.625081 75.7415231,303.893506 C74.4633416,305.1551 73.2251642,306.375715 72.0308939,307.554374 C70.8151579,308.707664 69.6423532,309.818023 68.5163826,310.884476 C66.2771257,313.034943 64.1803226,314.951239 62.2776861,316.668491 C58.489,320.124459 55.4457572,322.713021 53.3850554,324.446859 C52.3478745,325.325975 51.6219455,325.889936 51.1018915,326.322176 C50.542809,326.768076 50.2539986,326.998344 50.2539986,326.998344 L63.0719149,342.397016 C63.0719149,342.397016 63.3577982,342.143331 63.9120021,341.651573 C64.4857202,341.12664 65.4204514,340.308994 66.482025,339.309866 C68.6305408,337.302828 71.733302,334.36789 75.5200367,330.535296 C77.4246247,328.626806 79.5165492,326.503658 81.7304376,324.14634 C82.8446997,322.973536 84.0048201,321.752921 85.2078719,320.487424 C86.3836037,319.200461 87.6012911,317.866664 88.8599584,316.48896 C90.11082,315.106377 91.4290056,313.703305 92.7354828,312.216321 C94.038057,310.727386 95.3777083,309.194544 96.7534609,307.622673 C99.5332618,304.504301 102.325747,301.121511 105.25971,297.609926 C108.229775,294.129565 111.153005,290.367223 114.230398,286.52097 C117.342916,282.702037 120.348106,278.590391 123.521118,274.433861 C124.409015,273.290328 125.283253,272.119475 126.154563,270.936913 C132.273247,277.777623 138.519749,284.741273 144.884312,291.811276 C158.471089,306.85674 172.534012,322.371522 187.166751,337.904842 C189.005967,339.840653 190.848109,341.780366 192.694155,343.723007 L194.079664,345.18072 L195.51396,346.642335 L198.331813,349.500192 C200.211033,351.406732 202.093179,353.316198 203.978253,355.228592 C205.91504,357.11952 207.854753,359.0124 209.796418,360.907231 C209.886184,360.996996 209.978876,361.082859 210.068642,361.171648 L209.833495,362.163946 L209.68909,362.801086 L209.583713,363.332848 L209.371984,364.393446 C209.090979,365.808227 208.81095,367.219105 208.530921,368.626081 C206.383381,379.892617 205.087637,390.980597 204.269991,401.766107 C202.637626,423.34786 202.993761,443.708999 203.911905,462.414356 C204.901276,481.118737 206.573645,498.181972 208.420666,513.247927 C210.246221,528.31876 212.285457,541.390361 214.073935,552.140746 C215.895588,562.887227 217.508438,571.306638 218.667583,577.056503 C219.267645,579.938754 219.728181,582.14874 220.037482,583.637675 C220.369223,585.151978 220.540948,585.933523 220.540948,585.933523 L240.031753,581.294992 C240.031753,581.294992 239.855149,580.576869 239.512674,579.185505 C239.178981,577.761943 238.68332,575.649528 238.036424,572.893144 C236.770926,567.353057 234.988302,559.176598 232.940285,548.716 C230.924466,538.250523 228.602273,525.502858 226.444,510.812552 C224.26231,496.127125 222.206487,479.500032 220.781949,461.327414 C219.424735,443.165528 218.587575,423.420063 219.627683,402.727183 C220.11749,393.001295 221.012217,383.065629 222.570427,373.079226 C226.184461,376.493239 229.879479,379.817487 233.548153,383.17686 C243.656519,392.317321 253.939538,401.23532 264.283051,409.963056 C264.424529,413.579041 264.565032,417.178439 264.704559,420.745639 C264.751393,421.916492 264.797251,423.085394 264.843109,424.251369 L264.877259,425.12463 L264.894822,425.560773 C264.894822,425.565652 264.897749,425.632976 264.898725,425.677858 L264.898725,425.859341 L264.894822,427.627329 C264.889944,429.980744 264.886041,432.323426 264.881162,434.652449 C264.862624,443.97049 264.844085,453.085582 264.826522,461.959674 C264.573813,470.758637 264.174747,479.260983 263.87618,487.507693 C263.692746,491.631048 263.611762,495.671468 263.354174,499.658223 C263.074145,503.64693 262.798995,507.560507 262.530674,511.394076 C262.261378,515.226669 261.997936,518.979254 261.741324,522.647927 C261.474955,526.314649 261.273958,529.899412 260.890504,533.3827 C260.211409,540.351229 259.566464,546.961671 258.961523,553.174024 C258.809312,554.727356 258.659053,556.254344 258.512696,557.756939 C258.330238,559.254655 258.151683,560.727003 257.976055,562.173007 C257.624799,565.06599 257.286227,567.854572 256.96034,570.533875 C256.299783,575.888577 255.755337,580.818845 255.079169,585.235889 C254.448859,589.659763 253.885874,593.610417 253.397043,597.047848 C252.853572,600.462836 252.392061,603.367528 252.018363,605.722895 C251.64369,608.087043 251.346098,609.87357 251.130466,611.041496 C250.921664,612.224058 250.814336,612.833877 250.814336,612.833877 L270.562728,616.210813 C270.562728,616.210813 270.659323,615.547329 270.847635,614.261342 C271.045705,612.962671 271.301341,611.080524 271.610641,608.652955 C271.921893,606.21758 272.306323,603.213366 272.758078,599.681292 C273.152265,596.157023 273.604995,592.105871 274.111389,587.567839 C274.663641,583.032734 275.067586,578.003919 275.57398,572.533107 C275.822786,569.797213 276.080374,566.951064 276.348694,563.997587 C276.482367,562.521336 276.618966,561.018741 276.757517,559.489801 C276.860943,557.957935 276.96632,556.401676 277.073648,554.818097 C277.497106,548.489635 277.947885,541.755277 278.423056,534.656003 C278.703085,531.110269 278.798705,527.460134 278.95677,523.728039 C279.105078,519.995945 279.256313,516.177987 279.411451,512.279046 C279.56659,508.38108 279.724655,504.401155 279.885647,500.346099 C280.024198,496.287141 279.98517,492.115976 280.043712,487.89505 C280.094449,479.449295 280.232024,470.695216 280.213486,461.751848 C279.961752,452.881659 279.704165,443.769493 279.439747,434.455355 C279.374374,432.127309 279.308026,429.785602 279.241678,427.433163 L279.190941,425.66615 L279.166548,425.079748 L279.136301,424.631896 L279.073855,423.735218 C279.037754,423.220042 279.001653,422.700964 278.966527,422.183837 C296.772278,436.792183 314.640475,450.765341 332.078383,463.965736 C364.511995,488.486331 395.511311,510.380312 422.426301,528.66221 C449.349097,546.943133 472.18659,561.596362 488.492673,571.546663 C496.643764,576.526692 503.170295,580.334893 507.767846,582.888329 C510.149556,584.160656 511.865832,585.125634 513.277686,585.792045 C514.618313,586.449674 515.310092,586.790197 515.310092,586.790197 L523.43679,568.477076 C523.43679,568.477076 522.909906,568.2351 521.889312,567.767734 C520.914576,567.35696 519.216839,566.469063 517.09857,565.420173 C512.771292,563.182868 506.355016,559.696652 498.229294,555.059097 C481.969069,545.793745 458.900332,531.949381 431.659455,514.617825 C404.420529,497.281391 372.984094,476.457765 340.060676,453.079728 C319.677096,438.58554 298.699308,423.119544 277.897148,406.821266 C277.868852,406.408541 277.840557,406.000693 277.811285,405.587968 C275.95158,386.068868 273.441075,365.932143 269.177218,345.823713 C268.679605,343.304427 268.181017,340.780263 267.682429,338.25122 C267.165302,335.727055 266.512551,333.229235 265.933954,330.710924 C264.738708,325.685037 263.53956,320.645489 262.338459,315.595209 C260.962707,310.595665 259.583051,305.586364 258.203396,300.573161 C257.496981,298.069486 256.858866,295.552152 256.09586,293.060186 L253.780497,285.591117 C252.900406,282.795705 252.039829,279.986633 251.17047,277.185367 C251.860298,275.668136 252.531587,274.145051 253.246783,272.635626 C254.539601,269.951445 255.833393,267.262385 257.131089,264.568447 L258.109727,262.549701 L259.175204,260.574861 L261.309084,256.619329 C262.753136,253.991739 264.11035,251.306582 265.631484,248.713142 C267.180913,246.135313 268.732294,243.555533 270.28465,240.97185 L272.6166,237.093399 L275.131007,233.327154 L280.1647,225.782956 C281.881952,223.292942 283.739706,220.901474 285.520378,218.452439 L288.220171,214.79645 C288.672901,214.189557 289.112947,213.571932 289.577385,212.973821 L291.013632,211.212663 C306.081538,192.21752 323.378944,174.964997 341.975997,159.824888 C360.410106,144.799913 381.430825,133.67388 402.746209,125.542304 C424.1055,117.410728 445.739942,112.120422 466.443555,108.273194 C476.812436,106.399828 486.962758,104.888452 496.811586,103.613198 C506.669195,102.397462 516.219455,101.385649 525.407726,100.588493 C543.783292,98.9756429 560.689438,98.0857944 575.678312,97.4291409 C590.670112,96.7900501 603.752446,96.4270856 614.526248,96.1519351 C636.079705,95.7050594 648.39513,95.4503988 648.39513,95.4503988 C648.39513,95.4503988 636.075802,95.3928319 614.516491,95.2913579 L614.516491,95.2913579 Z"></path>
                        </g>
                    </g>
                </g>
            </g>
        </g>
    </g>
</svg>