<?xml version="1.0" encoding="UTF-8" standalone="no"?>
<svg width="60px" height="40px" viewBox="0 0 60 40" version="1.1" xmlns="http://www.w3.org/2000/svg" xmlns:xlink="http://www.w3.org/1999/xlink">
    <!-- Generator: sketchtool 3.8.2 (29753) - http://www.bohemiancoding.com/sketch -->
    <title>C3C19781-97CE-4173-B1F7-DEF821CD8AC4</title>
    <desc>Created with sketchtool.</desc>
    <defs>
        <rect id="path-1" x="0" y="0" width="50" height="30" rx="3"></rect>
        <filter x="-50%" y="-50%" width="200%" height="200%" filterUnits="objectBoundingBox" id="filter-2">
            <feOffset dx="0" dy="2" in="SourceAlpha" result="shadowOffsetOuter1"></feOffset>
            <feGaussianBlur stdDeviation="2.5" in="shadowOffsetOuter1" result="shadowBlurOuter1"></feGaussianBlur>
            <feComposite in="shadowBlurOuter1" in2="SourceAlpha" operator="out" result="shadowBlurOuter1"></feComposite>
            <feColorMatrix values="0 0 0 0 0   0 0 0 0 0   0 0 0 0 0  0 0 0 0.5 0" type="matrix" in="shadowBlurOuter1"></feColorMatrix>
        </filter>
        <mask id="mask-3" maskContentUnits="userSpaceOnUse" maskUnits="objectBoundingBox" x="0" y="0" width="50" height="30" fill="white">
            <use xlink:href="#path-1"></use>
        </mask>
    </defs>
    <g id="Assets" stroke="none" stroke-width="1" fill="none" fill-rule="evenodd">
        <g transform="translate(-845.000000, -1353.000000)" id="pin-map">
            <g transform="translate(850.000000, 1356.000000)">
                <g id="Rectangle-8">
                    <use fill="black" fill-opacity="1" filter="url(#filter-2)" xlink:href="#path-1"></use>
                    <use stroke-opacity="0.3" stroke="#000000" mask="url(#mask-3)" stroke-width="2" fill="#F2B01E" fill-rule="evenodd" xlink:href="#path-1"></use>
                </g>
                <g id="pin" transform="translate(5.000000, 5.000000)" fill="#FFFFFF">
                    <path d="M6.49669827,17.841 C5.14501625,11.196 1.05279523,5.2035 0,4.1145 C5.45282503,4.089 9.09002438,7.4745 9.09002438,7.4745 C9.09002438,7.4745 10.5026733,2.973 12.7629117,0 C13.8662649,3.186 16.5621939,7.4865 16.5621939,7.4865 C16.5621939,7.4865 18.8283803,4.1685 25.5496154,3.213 C21.3964274,7.194 20.1250433,9.8445 19.3800569,17.0715 C18.6425054,13.968 18.5012405,9.2385 21.4529334,5.976 C19.7071966,6.744 17.9614599,8.268 16.1636782,10.6455 C14.1874567,8.0175 12.5814978,4.008 12.5814978,4.008 C12.5814978,4.008 11.3234967,6.384 9.86028982,10.7925 C6.77922806,7.7655 3.60894637,6.555 3.60894637,6.555 C3.60894637,6.555 6.77476706,10.455 7.80079632,16.0755 C14.5725894,15.906 19.159981,18 19.159981,18 C19.159981,18 10.4506284,17.124 6.49669827,17.841 Z" id="Fill-1"></path>
                </g>
            </g>
        </g>
    </g>
</svg>